<svg xmlns:rdf="http://www.w3.org/1999/02/22-rdf-syntax-ns#" xmlns="http://www.w3.org/2000/svg" height="36" width="140" version="1.1" xmlns:cc="http://creativecommons.org/ns#" xmlns:dc="http://purl.org/dc/elements/1.1/" viewBox="0 0 140 36">
 <g transform="translate(0 -1016)">
  <g stroke="#000" fill="none">
   <g stroke-linejoin="round" stroke-linecap="round">
    <path d="m4 1036c0.315-2.52 0.6299-5.175 0.9449-6.865 0.315-1.691 0.6299-2.356 0.9449-1.62 0.315 0.7359 0.6299 2.875 0.9449 5.649 0.315 2.773 0.6299 6.116 0.9449 8.685s0.6299 4.285 0.9449 4.378c0.315 0.094 0.6299-1.458 0.9449-4.118s0.6299-6.37 0.9449-9.664c0.315-3.295 0.6299-6.081 0.9449-7.2s0.6299-0.5238 0.9449 1.605 0.6299 5.747 0.9449 9.433c0.315 3.685 0.6299 7.339 0.9449 9.489s0.6299 2.728 0.9449 1.486 0.6299-4.281 0.9449-7.908c0.315-3.626 0.6299-7.746 0.9449-10.72 0.315-2.971 0.6299-4.709 0.9449-4.544 0.315 0.1649 0.6299 2.234 0.9449 5.349 0.315 3.114 0.6299 7.193 0.9449 10.6 0.315 3.41 0.6299 6.06 0.9449 6.943 0.315 0.8824 0.6299-0.027 0.9449-2.289 0.315-2.263 0.6299-5.818 0.9449-9.214s0.6299-6.543 0.9449-8.239 0.6299-1.9 0.9449-0.6381 0.6299 3.952 0.9449 6.927c0.315 2.974 0.6299 6.153 0.9449 8.304 0.315 2.15 0.6299 3.22 0.9449 2.902 0.315-0.3186 0.6299-2.009 0.9449-4.295s0.6299-5.103 0.9449-7.331 0.6299-3.813 0.9449-4.228c0.315-0.4155 0.6299 0.3391 0.9449 1.847s0.6299 3.724 0.9449 5.735c0.315 2.012 0.6299 3.77 0.9449 4.651 0.315 0.8806 0.6299 0.8701 0.9449 0.079 0.315-0.7907 0.6299-2.334 0.9449-3.971 0.315-1.636 0.6299-3.325 0.9449-4.438s0.6299-1.628 0.9449-1.42c0.315 0.2082 0.6299 1.129 0.9449 2.357s0.6299 2.732 0.9449 3.938 0.6299 2.087 0.9449 2.339c0.315 0.2518 0.6299-0.1307 0.9449-0.9801s0.6299-2.148 0.9449-3.403c0.315-1.254 0.6299-2.437 0.9449-3.097 0.315-0.6601 0.6299-0.7793 0.9449-0.2916s0.6299 1.578 0.9449 2.88 0.6299 2.788 0.9449 3.88c0.315 1.093 0.6299 1.76 0.9449 1.689s0.6299-0.89 0.9449-2.205 0.6299-3.103 0.9449-4.678c0.315-1.576 0.6299-2.896 0.9449-3.377 0.315-0.4813 0.6299-0.095 0.9449 1.106s0.6299 3.202 0.9449 5.26 0.6299 4.12 0.9449 5.318 0.6299 1.484 0.9449 0.6301c0.315-0.8535 0.6299-2.845 0.9449-5.262s0.6299-5.204 0.9449-7.229 0.6299-3.221 0.9449-3.007c0.315 0.2133 0.6299 1.853 0.9449 4.361s0.6299 5.83 0.9449 8.652 0.6299 5.061 0.9449 5.749c0.315 0.6881 0.6299-0.2139 0.9449-2.435s0.6299-5.716 0.9449-9.123 0.6299-6.632 0.9449-8.35 0.6299-1.868 0.9449-0.3294c0.315 1.538 0.6299 4.738 0.9449 8.353 0.315 3.614 0.6299 7.55 0.9449 10.23 0.315 2.676 0.6299 4.012 0.9449 3.456 0.315-0.5559 0.6299-3.001 0.9449-6.364s0.6299-7.56 0.9449-10.92c0.315-3.355 0.6299-5.776 0.9449-6.315 0.315-0.5388 0.6299 0.825 0.9449 3.513s0.6299 6.631 0.9449 10.24c0.315 3.611 0.6299 6.793 0.9449 8.316s0.6299 1.346 0.9449-0.3863 0.6299-4.971 0.9449-8.379 0.6299-6.894 0.9449-9.102c0.315-2.209 0.6299-3.086 0.9449-2.384 0.315 0.7022 0.6299 2.959 0.9449 5.786s0.6299 6.147 0.9449 8.647 0.6299 4.12 0.9449 4.32c0.315 0.2005 0.6299-1.014 0.9449-3.046s0.6299-4.822 0.9449-7.236 0.6299-4.392 0.9449-5.235c0.315-0.8433 0.6299-0.5402 0.9449 0.6659s0.6299 3.276 0.9449 5.333c0.315 2.058 0.6299 4.051 0.9449 5.245s0.6299 1.566 0.9449 1.077c0.315-0.4889 0.6299-1.818 0.9449-3.396s0.6299-3.363 0.9449-4.674 0.6299-2.12 0.9449-2.183c0.315-0.064 0.6299 0.613 0.9449 1.709s0.6299 2.584 0.9449 3.884 0.6299 2.384 0.9449 2.866c0.315 0.4822 0.6299 0.3533 0.9449-0.3117s0.6299-1.852 0.9449-3.107 0.6299-2.55 0.9449-3.396c0.315-0.8452 0.6299-1.218 0.9449-0.9608 0.315 0.2575 0.6299 1.147 0.9449 2.355s0.6299 2.713 0.9449 3.938 0.6299 2.138 0.9449 2.339c0.315 0.2017 0.6299-0.3247 0.9449-1.443s0.6299-2.811 0.9449-4.447 0.6299-3.172 0.9449-3.956c0.315-0.7837 0.6299-0.7799 0.9449 0.1086 0.315 0.8886 0.6299 2.657 0.9449 4.67 0.315 2.014 0.6299 4.225 0.9449 5.726s0.6299 2.24 0.9449 1.814 0.6299-2.027 0.9449-4.26 0.6299-5.051 0.9449-7.332 0.6299-3.954 0.9449-4.26c0.315-0.3062 0.6299 0.7854 0.9449 2.945s0.6299 5.346 0.9449 8.318 0.6299 5.647 0.9449 6.897c0.315 1.249 0.6299 1.02 0.9449-0.6897 0.315-1.709 0.6299-4.871 0.9449-8.269s0.6299-6.943 0.9449-9.194 0.6299-3.133 0.9449-2.235c0.315 0.8985 0.6299 3.57 0.9449 6.987s0.6299 7.493 0.9449 10.6c0.315 3.106 0.6299 5.15 0.9449 5.298 0.315 0.1478 0.6299-1.617 0.9449-4.599s0.6299-7.107 0.9449-10.73c0.315-3.622 0.6299-6.64 0.9449-7.866s0.6299-0.6185 0.9449 1.545 0.6299 5.831 0.9449 9.516 0.6299 7.29 0.9449 9.406c0.315 2.115 0.6299 2.682 0.9449 1.548s0.6299-3.939 0.9449-7.238 0.6299-7.003 0.9449-9.653" title="sin(8*x)*(1+.5*sin(x))"/>
    <path d="m4 1028c0.315-0.1575 0.6299-0.315 0.9449-0.4713 0.315-0.1564 0.6299-0.3117 0.9449-0.4648s0.6299-0.3041 0.9449-0.4518 0.6299-0.2921 0.9449-0.4323c0.315-0.1403 0.6299-0.2763 0.9449-0.4071s0.6299-0.2564 0.9449-0.376c0.315-0.1195 0.6299-0.233 0.9449-0.3397s0.6299-0.2064 0.9449-0.2987c0.315-0.092 0.6299-0.177 0.9449-0.2536 0.315-0.076 0.6299-0.145 0.9449-0.2048 0.315-0.06 0.6299-0.111 0.9449-0.1533 0.315-0.042 0.6299-0.076 0.9449-0.1s0.6299-0.039 0.9449-0.044c0.315-0.01 0.6299 0 0.9449 0.011 0.315 0.013 0.6299 0.035 0.9449 0.067 0.315 0.031 0.6299 0.072 0.9449 0.1214 0.315 0.049 0.6299 0.1076 0.9449 0.1742 0.315 0.067 0.6299 0.1418 0.9449 0.2248s0.6299 0.1739 0.9449 0.2721c0.315 0.098 0.6299 0.2037 0.9449 0.3157s0.6299 0.2306 0.9449 0.3549 0.6299 0.2543 0.9449 0.3891 0.6299 0.2744 0.9449 0.4179 0.6299 0.2908 0.9449 0.4409 0.6299 0.3031 0.9449 0.4577c0.315 0.1547 0.6299 0.3111 0.9449 0.4682s0.6299 0.3149 0.9449 0.4722 0.6299 0.3141 0.9449 0.4695c0.315 0.1553 0.6299 0.3091 0.9449 0.4603s0.6299 0.2997 0.9449 0.4447c0.315 0.1449 0.6299 0.2862 0.9449 0.4229s0.6299 0.2687 0.9449 0.3953c0.315 0.1265 0.6299 0.2474 0.9449 0.362s0.6299 0.2228 0.9449 0.3238c0.315 0.1011 0.6299 0.195 0.9449 0.2811 0.315 0.086 0.6299 0.1644 0.9449 0.2344s0.6299 0.1316 0.9449 0.1844c0.315 0.053 0.6299 0.097 0.9449 0.132s0.6299 0.061 0.9449 0.078 0.6299 0.024 0.9449 0.022c0.315 0 0.6299-0.013 0.9449-0.034 0.315-0.02 0.6299-0.05 0.9449-0.089s0.6299-0.086 0.9449-0.1428c0.315-0.056 0.6299-0.1216 0.9449-0.1949 0.315-0.073 0.6299-0.1549 0.9449-0.2442 0.315-0.089 0.6299-0.1862 0.9449-0.2901s0.6299-0.2148 0.9449-0.332c0.315-0.1171 0.6299-0.2405 0.9449-0.3692s0.6299-0.2628 0.9449-0.4013 0.6299-0.2815 0.9449-0.4279c0.315-0.1463 0.6299-0.2962 0.9449-0.4484s0.6299-0.3068 0.9449-0.4627 0.6299-0.3131 0.9449-0.4705c0.315-0.1575 0.6299-0.3151 0.9449-0.4719s0.6299-0.3127 0.9449-0.4666 0.6299-0.3059 0.9449-0.4548 0.6299-0.2948 0.9449-0.4367 0.6299-0.2797 0.9449-0.4125 0.6299-0.2606 0.9449-0.3826c0.315-0.1219 0.6299-0.2379 0.9449-0.3473 0.315-0.1093 0.6299-0.2119 0.9449-0.3071 0.315-0.095 0.6299-0.183 0.9449-0.2628 0.315-0.08 0.6299-0.1515 0.9449-0.2147 0.315-0.063 0.6299-0.1179 0.9449-0.1637 0.315-0.046 0.6299-0.083 0.9449-0.1103 0.315-0.028 0.6299-0.046 0.9449-0.056s0.6299-0.01 0.9449 0.0002c0.315 0.01 0.6299 0.028 0.9449 0.056s0.6299 0.065 0.9449 0.1106c0.315 0.046 0.6299 0.1007 0.9449 0.164 0.315 0.063 0.6299 0.1352 0.9449 0.215 0.315 0.08 0.6299 0.1678 0.9449 0.2631 0.315 0.095 0.6299 0.198 0.9449 0.3074s0.6299 0.2255 0.9449 0.3475 0.6299 0.2499 0.9449 0.3827c0.315 0.1329 0.6299 0.2708 0.9449 0.4127s0.6299 0.2879 0.9449 0.4368c0.315 0.149 0.6299 0.301 0.9449 0.4549 0.315 0.154 0.6299 0.3099 0.9449 0.4667s0.6299 0.3144 0.9449 0.4719c0.315 0.1574 0.6299 0.3146 0.9449 0.4705s0.6299 0.3105 0.9449 0.4626c0.315 0.1522 0.6299 0.302 0.9449 0.4483 0.315 0.1464 0.6299 0.2893 0.9449 0.4277 0.315 0.1385 0.6299 0.2725 0.9449 0.4012s0.6299 0.252 0.9449 0.369c0.315 0.1171 0.6299 0.2279 0.9449 0.3318 0.315 0.1038 0.6299 0.2006 0.9449 0.2898 0.315 0.089 0.6299 0.1706 0.9449 0.2439 0.315 0.073 0.6299 0.1382 0.9449 0.1946 0.315 0.056 0.6299 0.1039 0.9449 0.1425 0.315 0.039 0.6299 0.068 0.9449 0.088s0.6299 0.032 0.9449 0.033c0.315 0 0.6299-0.01 0.9449-0.023 0.315-0.017 0.6299-0.043 0.9449-0.078s0.6299-0.079 0.9449-0.1323c0.315-0.053 0.6299-0.1147 0.9449-0.1848 0.315-0.07 0.6299-0.1485 0.9449-0.2347 0.315-0.086 0.6299-0.1802 0.9449-0.2813s0.6299-0.2094 0.9449-0.324c0.315-0.1147 0.6299-0.2357 0.9449-0.3623s0.6299-0.2587 0.9449-0.3954 0.6299-0.2781 0.9449-0.4231 0.6299-0.2936 0.9449-0.4448 0.6299-0.3051 0.9449-0.4604 0.6299-0.3122 0.9449-0.4695 0.6299-0.3151 0.9449-0.4722c0.315-0.157 0.6299-0.3134 0.9449-0.4681s0.6299-0.3076 0.9449-0.4577 0.6299-0.2973 0.9449-0.4407c0.315-0.1435 0.6299-0.283 0.9449-0.4178s0.6299-0.2647 0.9449-0.3889 0.6299-0.2427 0.9449-0.3547c0.315-0.1119 0.6299-0.2173 0.9449-0.3154 0.315-0.098 0.6299-0.189 0.9449-0.2719 0.315-0.083 0.6299-0.1579 0.9449-0.2245 0.315-0.067 0.6299-0.1246 0.9449-0.1739 0.315-0.049 0.6299-0.09 0.9449-0.121s0.6299-0.053 0.9449-0.066 0.6299-0.017 0.9449-0.011c0.315 0.01 0.6299 0.021 0.9449 0.045s0.6299 0.058 0.9449 0.1 0.6299 0.094 0.9449 0.1536c0.315 0.06 0.6299 0.1284 0.9449 0.2051 0.315 0.077 0.6299 0.1615 0.9449 0.2538 0.315 0.092 0.6299 0.1923 0.9449 0.299s0.6299 0.2203 0.9449 0.3399" title="sin(.5*x)" stroke-dasharray="1, 3"/>
    <path d="m4 1044c0.315 0.1575 0.6299 0.315 0.9449 0.4713 0.315 0.1564 0.6299 0.3117 0.9449 0.4648s0.6299 0.304 0.9449 0.4517 0.6299 0.2922 0.9449 0.4324c0.315 0.1403 0.6299 0.2763 0.9449 0.4071s0.6299 0.2564 0.9449 0.376c0.315 0.1195 0.6299 0.233 0.9449 0.3397 0.315 0.1066 0.6299 0.2064 0.9449 0.2987 0.315 0.092 0.6299 0.177 0.9449 0.2535 0.315 0.077 0.6299 0.1451 0.9449 0.2049 0.315 0.06 0.6299 0.111 0.9449 0.1533 0.315 0.042 0.6299 0.075 0.9449 0.1 0.315 0.024 0.6299 0.039 0.9449 0.044 0.315 0.01 0.6299 0 0.9449-0.011 0.315-0.013 0.6299-0.035 0.9449-0.067 0.315-0.031 0.6299-0.072 0.9449-0.1214 0.315-0.049 0.6299-0.1076 0.9449-0.1743 0.315-0.067 0.6299-0.1417 0.9449-0.2247s0.6299-0.174 0.9449-0.2722c0.315-0.098 0.6299-0.2036 0.9449-0.3157 0.315-0.112 0.6299-0.2305 0.9449-0.3548s0.6299-0.2543 0.9449-0.3891 0.6299-0.2745 0.9449-0.4179c0.315-0.1435 0.6299-0.2908 0.9449-0.4409 0.315-0.1502 0.6299-0.3031 0.9449-0.4578 0.315-0.1546 0.6299-0.3111 0.9449-0.4682s0.6299-0.3148 0.9449-0.4721 0.6299-0.3142 0.9449-0.4695 0.6299-0.3091 0.9449-0.4603 0.6299-0.2998 0.9449-0.4447c0.315-0.145 0.6299-0.2863 0.9449-0.4229 0.315-0.1367 0.6299-0.2688 0.9449-0.3953s0.6299-0.2474 0.9449-0.362 0.6299-0.2228 0.9449-0.3238c0.315-0.1011 0.6299-0.195 0.9449-0.2811 0.315-0.086 0.6299-0.1644 0.9449-0.2344s0.6299-0.1316 0.9449-0.1844c0.315-0.053 0.6299-0.097 0.9449-0.132s0.6299-0.061 0.9449-0.078 0.6299-0.024 0.9449-0.022c0.315 0 0.6299 0.013 0.9449 0.034s0.6299 0.05 0.9449 0.089 0.6299 0.086 0.9449 0.1429c0.315 0.056 0.6299 0.1215 0.9449 0.1948 0.315 0.073 0.6299 0.155 0.9449 0.2442 0.315 0.089 0.6299 0.1862 0.9449 0.2901s0.6299 0.2149 0.9449 0.332 0.6299 0.2405 0.9449 0.3692 0.6299 0.2628 0.9449 0.4014c0.315 0.1385 0.6299 0.2814 0.9449 0.4278s0.6299 0.2962 0.9449 0.4484 0.6299 0.3068 0.9449 0.4627 0.6299 0.3131 0.9449 0.4706c0.315 0.1574 0.6299 0.3151 0.9449 0.4718 0.315 0.1568 0.6299 0.3127 0.9449 0.4666 0.315 0.154 0.6299 0.3059 0.9449 0.4549 0.315 0.1489 0.6299 0.2948 0.9449 0.4367 0.315 0.1418 0.6299 0.2796 0.9449 0.4125 0.315 0.1328 0.6299 0.2606 0.9449 0.3825s0.6299 0.238 0.9449 0.3473 0.6299 0.2119 0.9449 0.3072c0.315 0.095 0.6299 0.1829 0.9449 0.2627 0.315 0.08 0.6299 0.1515 0.9449 0.2147 0.315 0.063 0.6299 0.1179 0.9449 0.1637 0.315 0.046 0.6299 0.083 0.9449 0.1103 0.315 0.028 0.6299 0.046 0.9449 0.055 0.315 0.01 0.6299 0.01 0.9449-0.0002 0.315-0.01 0.6299-0.028 0.9449-0.056s0.6299-0.065 0.9449-0.1107c0.315-0.046 0.6299-0.1006 0.9449-0.1639 0.315-0.063 0.6299-0.1352 0.9449-0.2151 0.315-0.08 0.6299-0.1677 0.9449-0.263 0.315-0.095 0.6299-0.198 0.9449-0.3074s0.6299-0.2256 0.9449-0.3476c0.315-0.1219 0.6299-0.2498 0.9449-0.3827s0.6299-0.2708 0.9449-0.4127 0.6299-0.2879 0.9449-0.4368c0.315-0.149 0.6299-0.301 0.9449-0.4549 0.315-0.154 0.6299-0.3099 0.9449-0.4667s0.6299-0.3144 0.9449-0.4718c0.315-0.1575 0.6299-0.3147 0.9449-0.4706s0.6299-0.3104 0.9449-0.4626 0.6299-0.302 0.9449-0.4483c0.315-0.1464 0.6299-0.2893 0.9449-0.4277 0.315-0.1385 0.6299-0.2725 0.9449-0.4012 0.315-0.1286 0.6299-0.2519 0.9449-0.369s0.6299-0.2279 0.9449-0.3317c0.315-0.1039 0.6299-0.2007 0.9449-0.2899 0.315-0.089 0.6299-0.1706 0.9449-0.2438 0.315-0.073 0.6299-0.1383 0.9449-0.1946 0.315-0.056 0.6299-0.1039 0.9449-0.1425 0.315-0.039 0.6299-0.068 0.9449-0.088s0.6299-0.031 0.9449-0.033c0.315 0 0.6299 0.01 0.9449 0.023 0.315 0.017 0.6299 0.043 0.9449 0.078s0.6299 0.079 0.9449 0.1322c0.315 0.053 0.6299 0.1148 0.9449 0.1848s0.6299 0.1485 0.9449 0.2347c0.315 0.086 0.6299 0.1802 0.9449 0.2813 0.315 0.1012 0.6299 0.2095 0.9449 0.3241 0.315 0.1147 0.6299 0.2357 0.9449 0.3623 0.315 0.1265 0.6299 0.2587 0.9449 0.3954s0.6299 0.2781 0.9449 0.4231 0.6299 0.2936 0.9449 0.4448 0.6299 0.305 0.9449 0.4604c0.315 0.1553 0.6299 0.3122 0.9449 0.4695s0.6299 0.3151 0.9449 0.4722c0.315 0.157 0.6299 0.3134 0.9449 0.4681s0.6299 0.3076 0.9449 0.4577c0.315 0.15 0.6299 0.2973 0.9449 0.4407s0.6299 0.283 0.9449 0.4178c0.315 0.1347 0.6299 0.2647 0.9449 0.3889s0.6299 0.2427 0.9449 0.3546c0.315 0.112 0.6299 0.2174 0.9449 0.3155 0.315 0.098 0.6299 0.1889 0.9449 0.2718 0.315 0.083 0.6299 0.1579 0.9449 0.2245 0.315 0.067 0.6299 0.1247 0.9449 0.1739 0.315 0.049 0.6299 0.09 0.9449 0.121s0.6299 0.053 0.9449 0.066 0.6299 0.017 0.9449 0.011c0.315-0.01 0.6299-0.021 0.9449-0.045s0.6299-0.058 0.9449-0.1 0.6299-0.094 0.9449-0.1536c0.315-0.06 0.6299-0.1285 0.9449-0.2052 0.315-0.077 0.6299-0.1615 0.9449-0.2538 0.315-0.092 0.6299-0.1923 0.9449-0.299s0.6299-0.2203 0.9449-0.34" title="-sin(.5*x)" stroke-dasharray="1, 3"/>
   </g>
   <g stroke-width="1px">
    <path d="m4 1048v-28" stroke-linecap="round"/>
    <path stroke-linejoin="round" d="m2 1023 2-3 2 3" stroke-linecap="round"/>
    <path d="m4 1036h124"/>
   </g>
  </g>
  <path stroke-linejoin="round" d="m125 1034 3 2-3 2" fill-opacity="0" stroke="#000" stroke-linecap="round" stroke-width="1px"/>
  <text style="word-spacing:0px;letter-spacing:0px" xml:space="preserve" font-size="5px" line-height="125%" y="1038.0623" x="129.66313" font-family="&apos;Source Sans Pro&apos;" fill="#000000"><tspan x="129.66313" y="1038.0623">Time</tspan></text>
  <text style="word-spacing:0px;letter-spacing:0px" xml:space="preserve" font-size="5px" line-height="125%" y="1021.5822" x="6.3315625" font-family="&apos;Source Sans Pro&apos;" fill="#000000"><tspan x="6.3315625" y="1021.5822">Voltage</tspan></text>
 </g>
</svg>
