<?xml version="1.0" encoding="UTF-8" standalone="no"?>
<!-- Created with Inkscape (http://www.inkscape.org/) -->

<svg
   xmlns:dc="http://purl.org/dc/elements/1.1/"
   xmlns:cc="http://creativecommons.org/ns#"
   xmlns:rdf="http://www.w3.org/1999/02/22-rdf-syntax-ns#"
   xmlns:svg="http://www.w3.org/2000/svg"
   xmlns="http://www.w3.org/2000/svg"
   xmlns:sodipodi="http://sodipodi.sourceforge.net/DTD/sodipodi-0.dtd"
   xmlns:inkscape="http://www.inkscape.org/namespaces/inkscape"
   width="140"
   height="36"
   viewBox="0 0 140 36"
   id="svg4415"
   version="1.1"
   inkscape:version="0.91 r"
   sodipodi:docname="am_voltage_time.svg">
  <sodipodi:namedview
     inkscape:object-nodes="true"
     id="base"
     pagecolor="#ffffff"
     bordercolor="#666666"
     borderopacity="1.0"
     inkscape:pageopacity="0.0"
     inkscape:pageshadow="2"
     inkscape:zoom="7.9195959"
     inkscape:cx="65.841064"
     inkscape:cy="20.654097"
     inkscape:document-units="px"
     inkscape:current-layer="layer1"
     showgrid="true"
     inkscape:window-width="1920"
     inkscape:window-height="1028"
     inkscape:window-x="0"
     inkscape:window-y="25"
     inkscape:window-maximized="1"
     units="px"
     inkscape:snap-bbox="true"
     inkscape:snap-bbox-edge-midpoints="true"
     inkscape:snap-bbox-midpoints="true">
    <inkscape:grid
       id="grid5831"
       type="xygrid"
       empspacing="4" />
  </sodipodi:namedview>
  <defs
     id="defs4417" />
  <metadata
     id="metadata4420">
    <rdf:RDF>
      <cc:Work
         rdf:about="">
        <dc:format>image/svg+xml</dc:format>
        <dc:type
           rdf:resource="http://purl.org/dc/dcmitype/StillImage" />
        <dc:title></dc:title>
      </cc:Work>
    </rdf:RDF>
  </metadata>
  <g
     transform="translate(0,-1016.3622)"
     id="layer1"
     inkscape:groupmode="layer"
     inkscape:label="Layer 1">
    <path
       id="path6327"
       title="sin(8*x)*(1+.5*sin(x))"
       d="m 4,1036.3622 0,0 c 0.3149606,-2.5198 0.6299213,-5.1746 0.9448819,-6.8654 0.3149606,-1.6908 0.6299212,-2.3559 0.9448819,-1.62 0.3149606,0.7359 0.6299212,2.8754 0.9448819,5.6489 0.3149606,2.7734 0.6299212,6.1159 0.9448819,8.6848 0.3149606,2.569 0.6299212,4.2846 0.9448818,4.3783 0.3149607,0.094 0.6299213,-1.4585 0.9448819,-4.1185 0.3149607,-2.6599 0.6299217,-6.3696 0.9448817,-9.6643 0.314961,-3.2946 0.629921,-6.0811 0.944882,-7.2001 0.314961,-1.1191 0.629921,-0.5238 0.944882,1.6048 0.314961,2.1286 0.629921,5.7473 0.944882,9.4327 0.314961,3.6854 0.629921,7.3392 0.944882,9.4892 0.31496,2.1501 0.629921,2.7281 0.944882,1.4863 0.31496,-1.2417 0.629921,-4.2811 0.944882,-7.9075 0.31496,-3.6265 0.629921,-7.7459 0.944881,-10.7168 0.314961,-2.971 0.629922,-4.7092 0.944882,-4.5442 0.314961,0.1649 0.629922,2.2345 0.944882,5.3491 0.314961,3.1145 0.629921,7.193 0.944882,10.6033 0.314961,3.4103 0.629921,6.0605 0.944882,6.9429 0.314961,0.8824 0.629921,-0.027 0.944882,-2.2894 0.314961,-2.2627 0.629921,-5.8176 0.944882,-9.2136 0.31496,-3.396 0.629921,-6.5431 0.944882,-8.2393 0.31496,-1.6962 0.629921,-1.9004 0.944882,-0.6381 0.31496,1.2624 0.629921,3.9522 0.944881,6.9266 0.314961,2.9745 0.629922,6.1533 0.944882,8.3035 0.314961,2.1501 0.629922,3.2205 0.944882,2.9019 0.314961,-0.3186 0.629922,-2.0088 0.944882,-4.2946 0.314961,-2.2858 0.629921,-5.103 0.944882,-7.3307 0.314961,-2.2278 0.629921,-3.8128 0.944882,-4.2283 0.314961,-0.4155 0.629921,0.3391 0.944882,1.847 0.31496,1.508 0.629921,3.7236 0.944882,5.7352 0.31496,2.0116 0.629921,3.77 0.944882,4.6506 0.31496,0.8806 0.629921,0.8701 0.944881,0.079 0.314961,-0.7907 0.629922,-2.3342 0.944882,-3.9707 0.314961,-1.6365 0.629922,-3.3253 0.944882,-4.438 0.314961,-1.1126 0.629922,-1.6277 0.944882,-1.4195 0.314961,0.2082 0.629921,1.1294 0.944882,2.357 0.314961,1.2276 0.629921,2.7319 0.944882,3.9376 0.314961,1.2056 0.629921,2.0868 0.944882,2.3387 0.31496,0.2518 0.629921,-0.1307 0.944882,-0.9801 0.31496,-0.8494 0.629921,-2.1483 0.944882,-3.4027 0.31496,-1.2543 0.629921,-2.4367 0.944881,-3.0969 0.314961,-0.6601 0.629922,-0.7793 0.944882,-0.2916 0.314961,0.4877 0.629922,1.5782 0.944882,2.8799 0.314961,1.3018 0.629922,2.788 0.944882,3.8805 0.314961,1.0926 0.629921,1.7596 0.944882,1.6891 0.314961,-0.071 0.629921,-0.89 0.944882,-2.205 0.314961,-1.315 0.629921,-3.1028 0.944882,-4.6785 0.31496,-1.5757 0.629921,-2.8958 0.944882,-3.3771 0.31496,-0.4813 0.629921,-0.095 0.944882,1.1062 0.31496,1.201 0.629921,3.2018 0.944881,5.2596 0.314961,2.0578 0.629922,4.1202 0.944882,5.3182 0.314961,1.198 0.629922,1.4837 0.944882,0.6301 0.314961,-0.8535 0.629922,-2.8449 0.944882,-5.2623 0.314961,-2.4173 0.629921,-5.204 0.944882,-7.2288 0.314961,-2.0247 0.629921,-3.2206 0.944882,-3.0073 0.314961,0.2133 0.629921,1.8527 0.944882,4.3606 0.31496,2.5079 0.629921,5.8303 0.944882,8.6525 0.31496,2.8222 0.629921,5.0613 0.944882,5.7493 0.31496,0.6881 0.629921,-0.2139 0.944881,-2.4346 0.314961,-2.2207 0.629922,-5.7165 0.944882,-9.1233 0.314961,-3.4067 0.629922,-6.6317 0.944882,-8.3498 0.314961,-1.7181 0.629922,-1.8676 0.944882,-0.3294 0.314961,1.5381 0.629921,4.7383 0.944882,8.3528 0.314961,3.6145 0.629921,7.5495 0.944882,10.2257 0.314961,2.6761 0.629921,4.0122 0.944882,3.4564 0.31496,-0.5559 0.629921,-3.0008 0.944882,-6.3641 0.31496,-3.3633 0.629921,-7.5597 0.944882,-10.915 0.31496,-3.3554 0.629921,-5.7762 0.944882,-6.315 0.31496,-0.5388 0.629921,0.825 0.944881,3.5128 0.314961,2.6878 0.629922,6.6307 0.944882,10.2419 0.314961,3.6111 0.629922,6.7934 0.944882,8.3165 0.314961,1.523 0.629921,1.3456 0.944882,-0.3863 0.314961,-1.7319 0.629921,-4.9712 0.944882,-8.3792 0.314961,-3.4079 0.629921,-6.8935 0.944882,-9.1025 0.31496,-2.209 0.629921,-3.086 0.944882,-2.3838 0.31496,0.7022 0.629921,2.9594 0.944882,5.7865 0.31496,2.8271 0.629921,6.1466 0.944882,8.6469 0.31496,2.5004 0.629921,4.12 0.944881,4.3205 0.314961,0.2005 0.629922,-1.0143 0.944882,-3.0463 0.314961,-2.0319 0.629922,-4.8217 0.944882,-7.2356 0.314961,-2.4138 0.629921,-4.3916 0.944882,-5.2349 0.314961,-0.8433 0.629921,-0.5402 0.944882,0.6659 0.314961,1.206 0.629921,3.2755 0.944882,5.3331 0.31496,2.0576 0.629921,4.0509 0.944882,5.2446 0.31496,1.1938 0.629921,1.5658 0.944882,1.0768 0.31496,-0.4889 0.629921,-1.8182 0.944882,-3.3961 0.31496,-1.5778 0.629921,-3.3632 0.944881,-4.6739 0.314961,-1.3107 0.629922,-2.1195 0.944882,-2.1832 0.314961,-0.064 0.629922,0.613 0.944882,1.7093 0.314961,1.0962 0.629921,2.5841 0.944882,3.8841 0.314961,1.2999 0.629921,2.3835 0.944882,2.8657 0.314961,0.4822 0.629921,0.3533 0.944882,-0.3117 0.31496,-0.665 0.629921,-1.8523 0.944882,-3.1072 0.31496,-1.2549 0.629921,-2.5503 0.944882,-3.3956 0.31496,-0.8452 0.629921,-1.2183 0.944882,-0.9608 0.31496,0.2575 0.629921,1.1469 0.944881,2.3553 0.314961,1.2084 0.629922,2.713 0.944882,3.9379 0.314961,1.2249 0.629922,2.1375 0.944882,2.3392 0.314961,0.2017 0.629921,-0.3247 0.944882,-1.4426 0.314961,-1.1179 0.629921,-2.8113 0.944882,-4.447 0.314961,-1.6358 0.629921,-3.1722 0.944882,-3.956 0.31496,-0.7837 0.629919,-0.7799 0.944879,0.1086 0.31496,0.8886 0.62992,2.6568 0.94488,4.6704 0.31497,2.0135 0.62993,4.2249 0.94489,5.7262 0.31496,1.5013 0.62992,2.2395 0.94488,1.8135 0.31496,-0.426 0.62992,-2.0267 0.94488,-4.2599 0.31496,-2.2332 0.62992,-5.051 0.94488,-7.3316 0.31496,-2.2806 0.62992,-3.9541 0.94488,-4.2602 0.31496,-0.3062 0.62993,0.7854 0.94489,2.9449 0.31496,2.1596 0.62992,5.3457 0.94488,8.3178 0.31496,2.9721 0.62992,5.6474 0.94488,6.8966 0.31496,1.2492 0.62992,1.0197 0.94488,-0.6897 0.31496,-1.7094 0.62992,-4.8711 0.94488,-8.2689 0.31496,-3.3977 0.62992,-6.9429 0.94489,-9.1936 0.31496,-2.2508 0.62992,-3.133 0.94488,-2.2346 0.31496,0.8985 0.62992,3.5704 0.94488,6.987 0.31496,3.4166 0.62992,7.4926 0.94488,10.598 0.31496,3.1055 0.62992,5.1498 0.94488,5.2976 0.31496,0.1478 0.62992,-1.6173 0.94488,-4.5989 0.31497,-2.9816 0.62993,-7.1066 0.94489,-10.7281 0.31496,-3.6215 0.62992,-6.6404 0.94488,-7.8658 0.31496,-1.2255 0.62992,-0.6185 0.94488,1.5454 0.31496,2.1639 0.62992,5.8307 0.94488,9.5159 0.31496,3.6853 0.62992,7.2905 0.94488,9.4055 0.31496,2.1149 0.62993,2.6823 0.94489,1.5481 0.31496,-1.1343 0.62992,-3.9392 0.94488,-7.238 0.31496,-3.2988 0.62992,-7.0029 0.94488,-9.6531"
       style="fill:none;fill-opacity:1;stroke:#000000;stroke-width:1;stroke-linecap:round;stroke-linejoin:round;stroke-miterlimit:4;stroke-dasharray:none;stroke-dashoffset:0;stroke-opacity:1"
       inkscape:connector-curvature="0"
       sodipodi:nodetypes="ccssssssssssssssssssssssssssssssssssssssssssssssssssssssssssssssssssssssssssssssssssssssssssssssssssssssssssssssssssssssssssssssc" />
    <path
       sodipodi:nodetypes="ccssssssssssssssssssssssssssssssssssssssssssssssssssssssssssssssssssssssssssssssssssssssssssssssssssssssssssssssssssssssssssssssc"
       inkscape:connector-curvature="0"
       style="opacity:1;fill:none;fill-opacity:1;stroke:#000000;stroke-width:1;stroke-linecap:round;stroke-linejoin:round;stroke-miterlimit:4;stroke-dasharray:1, 3;stroke-dashoffset:0;stroke-opacity:1"
       d="m 4,1028.3622 0,0 c 0.3149606,-0.1575 0.6299213,-0.315 0.9448819,-0.4713 0.3149606,-0.1564 0.6299212,-0.3117 0.9448819,-0.4648 0.3149606,-0.1531 0.6299212,-0.3041 0.9448819,-0.4518 0.3149606,-0.1477 0.6299212,-0.2921 0.9448819,-0.4323 0.3149606,-0.1403 0.6299212,-0.2763 0.9448818,-0.4071 0.3149607,-0.1308 0.6299213,-0.2564 0.9448819,-0.376 0.3149607,-0.1195 0.6299217,-0.233 0.9448817,-0.3397 0.314961,-0.1067 0.629921,-0.2064 0.944882,-0.2987 0.314961,-0.092 0.629921,-0.177 0.944882,-0.2536 0.314961,-0.076 0.629921,-0.145 0.944882,-0.2048 0.314961,-0.06 0.629921,-0.111 0.944882,-0.1533 0.31496,-0.042 0.629921,-0.076 0.944882,-0.1 0.31496,-0.024 0.629921,-0.039 0.944882,-0.044 0.31496,-0.01 0.629921,0 0.944881,0.011 0.314961,0.013 0.629922,0.035 0.944882,0.067 0.314961,0.031 0.629922,0.072 0.944882,0.1214 0.314961,0.049 0.629921,0.1076 0.944882,0.1742 0.314961,0.067 0.629921,0.1418 0.944882,0.2248 0.314961,0.083 0.629921,0.1739 0.944882,0.2721 0.314961,0.098 0.629921,0.2037 0.944882,0.3157 0.31496,0.112 0.629921,0.2306 0.944882,0.3549 0.31496,0.1243 0.629921,0.2543 0.944882,0.3891 0.31496,0.1348 0.629921,0.2744 0.944881,0.4179 0.314961,0.1435 0.629922,0.2908 0.944882,0.4409 0.314961,0.1501 0.629922,0.3031 0.944882,0.4577 0.314961,0.1547 0.629922,0.3111 0.944882,0.4682 0.314961,0.1571 0.629921,0.3149 0.944882,0.4722 0.314961,0.1573 0.629921,0.3141 0.944882,0.4695 0.314961,0.1553 0.629921,0.3091 0.944882,0.4603 0.31496,0.1512 0.629921,0.2997 0.944882,0.4447 0.31496,0.1449 0.629921,0.2862 0.944882,0.4229 0.31496,0.1367 0.629921,0.2687 0.944881,0.3953 0.314961,0.1265 0.629922,0.2474 0.944882,0.362 0.314961,0.1146 0.629922,0.2228 0.944882,0.3238 0.314961,0.1011 0.629922,0.195 0.944882,0.2811 0.314961,0.086 0.629921,0.1644 0.944882,0.2344 0.314961,0.07 0.629921,0.1316 0.944882,0.1844 0.314961,0.053 0.629921,0.097 0.944882,0.132 0.31496,0.035 0.629921,0.061 0.944882,0.078 0.31496,0.017 0.629921,0.024 0.944882,0.022 0.31496,0 0.629921,-0.013 0.944881,-0.034 0.314961,-0.02 0.629922,-0.05 0.944882,-0.089 0.314961,-0.039 0.629922,-0.086 0.944882,-0.1428 0.314961,-0.056 0.629922,-0.1216 0.944882,-0.1949 0.314961,-0.073 0.629921,-0.1549 0.944882,-0.2442 0.314961,-0.089 0.629921,-0.1862 0.944882,-0.2901 0.314961,-0.1039 0.629921,-0.2148 0.944882,-0.332 0.31496,-0.1171 0.629921,-0.2405 0.944882,-0.3692 0.31496,-0.1287 0.629921,-0.2628 0.944882,-0.4013 0.31496,-0.1385 0.629921,-0.2815 0.944881,-0.4279 0.314961,-0.1463 0.629922,-0.2962 0.944882,-0.4484 0.314961,-0.1522 0.629922,-0.3068 0.944882,-0.4627 0.314961,-0.1559 0.629922,-0.3131 0.944882,-0.4705 0.314961,-0.1575 0.629921,-0.3151 0.944882,-0.4719 0.314961,-0.1568 0.629921,-0.3127 0.944882,-0.4666 0.314961,-0.1539 0.629921,-0.3059 0.944882,-0.4548 0.31496,-0.1489 0.629921,-0.2948 0.944882,-0.4367 0.31496,-0.1419 0.629921,-0.2797 0.944882,-0.4125 0.31496,-0.1328 0.629921,-0.2606 0.944881,-0.3826 0.314961,-0.1219 0.629922,-0.2379 0.944882,-0.3473 0.314961,-0.1093 0.629922,-0.2119 0.944882,-0.3071 0.314961,-0.095 0.629922,-0.183 0.944882,-0.2628 0.314961,-0.08 0.629921,-0.1515 0.944882,-0.2147 0.314961,-0.063 0.629921,-0.1179 0.944882,-0.1637 0.314961,-0.046 0.629921,-0.083 0.944882,-0.1103 0.31496,-0.028 0.629921,-0.046 0.944882,-0.056 0.31496,-0.01 0.629921,-0.01 0.944882,2e-4 0.31496,0.01 0.629921,0.028 0.944882,0.056 0.31496,0.028 0.629921,0.065 0.944881,0.1106 0.314961,0.046 0.629922,0.1007 0.944882,0.164 0.314961,0.063 0.629922,0.1352 0.944882,0.215 0.314961,0.08 0.629921,0.1678 0.944882,0.2631 0.314961,0.095 0.629921,0.198 0.944882,0.3074 0.314961,0.1094 0.629921,0.2255 0.944882,0.3475 0.31496,0.122 0.629921,0.2499 0.944882,0.3827 0.31496,0.1329 0.629921,0.2708 0.944882,0.4127 0.31496,0.1419 0.629921,0.2879 0.944882,0.4368 0.31496,0.149 0.629921,0.301 0.944881,0.4549 0.314961,0.154 0.629922,0.3099 0.944882,0.4667 0.314961,0.1568 0.629922,0.3144 0.944882,0.4719 0.314961,0.1574 0.629921,0.3146 0.944882,0.4705 0.314961,0.1559 0.629921,0.3105 0.944882,0.4626 0.314961,0.1522 0.629921,0.302 0.944882,0.4483 0.31496,0.1464 0.629921,0.2893 0.944882,0.4277 0.31496,0.1385 0.629921,0.2725 0.944882,0.4012 0.31496,0.1287 0.629921,0.252 0.944882,0.369 0.31496,0.1171 0.629921,0.2279 0.944881,0.3318 0.314961,0.1038 0.629922,0.2006 0.944882,0.2898 0.314961,0.089 0.629922,0.1706 0.944882,0.2439 0.314961,0.073 0.629921,0.1382 0.944882,0.1946 0.314961,0.056 0.629921,0.1039 0.944882,0.1425 0.314961,0.039 0.629921,0.068 0.944882,0.088 0.31496,0.02 0.629921,0.032 0.944882,0.033 0.31496,0 0.629921,-0.01 0.944882,-0.023 0.31496,-0.017 0.629921,-0.043 0.944882,-0.078 0.31496,-0.035 0.629921,-0.079 0.944881,-0.1323 0.314961,-0.053 0.629922,-0.1147 0.944882,-0.1848 0.314961,-0.07 0.629922,-0.1485 0.944882,-0.2347 0.314961,-0.086 0.629921,-0.1802 0.944882,-0.2813 0.314961,-0.1011 0.629921,-0.2094 0.944882,-0.324 0.314961,-0.1147 0.629921,-0.2357 0.944882,-0.3623 0.31496,-0.1266 0.629919,-0.2587 0.944879,-0.3954 0.31496,-0.1367 0.62992,-0.2781 0.94488,-0.4231 0.31497,-0.145 0.62993,-0.2936 0.94489,-0.4448 0.31496,-0.1512 0.62992,-0.3051 0.94488,-0.4604 0.31496,-0.1553 0.62992,-0.3122 0.94488,-0.4695 0.31496,-0.1573 0.62992,-0.3151 0.94488,-0.4722 0.31496,-0.157 0.62992,-0.3134 0.94488,-0.4681 0.31496,-0.1547 0.62993,-0.3076 0.94489,-0.4577 0.31496,-0.1501 0.62992,-0.2973 0.94488,-0.4407 0.31496,-0.1435 0.62992,-0.283 0.94488,-0.4178 0.31496,-0.1348 0.62992,-0.2647 0.94488,-0.3889 0.31496,-0.1242 0.62992,-0.2427 0.94488,-0.3547 0.31496,-0.1119 0.62992,-0.2173 0.94489,-0.3154 0.31496,-0.098 0.62992,-0.189 0.94488,-0.2719 0.31496,-0.083 0.62992,-0.1579 0.94488,-0.2245 0.31496,-0.067 0.62992,-0.1246 0.94488,-0.1739 0.31496,-0.049 0.62992,-0.09 0.94488,-0.121 0.31496,-0.031 0.62992,-0.053 0.94488,-0.066 0.31497,-0.013 0.62993,-0.017 0.94489,-0.011 0.31496,0.01 0.62992,0.021 0.94488,0.045 0.31496,0.024 0.62992,0.058 0.94488,0.1 0.31496,0.042 0.62992,0.094 0.94488,0.1536 0.31496,0.06 0.62992,0.1284 0.94488,0.2051 0.31496,0.077 0.62993,0.1615 0.94489,0.2538 0.31496,0.092 0.62992,0.1923 0.94488,0.299 0.31496,0.1067 0.62992,0.2203 0.94488,0.3399"
       title="sin(.5*x)"
       id="path6406" />
    <path
       id="path6458"
       title="-sin(.5*x)"
       d="m 4,1044.3622 0,0 c 0.3149606,0.1575 0.6299213,0.315 0.9448819,0.4713 0.3149606,0.1564 0.6299212,0.3117 0.9448819,0.4648 0.3149606,0.1531 0.6299212,0.304 0.9448819,0.4517 0.3149606,0.1477 0.6299212,0.2922 0.9448819,0.4324 0.3149606,0.1403 0.6299212,0.2763 0.9448818,0.4071 0.3149607,0.1308 0.6299213,0.2564 0.9448819,0.376 0.3149607,0.1195 0.6299217,0.233 0.9448817,0.3397 0.314961,0.1066 0.629921,0.2064 0.944882,0.2987 0.314961,0.092 0.629921,0.177 0.944882,0.2535 0.314961,0.077 0.629921,0.1451 0.944882,0.2049 0.314961,0.06 0.629921,0.111 0.944882,0.1533 0.31496,0.042 0.629921,0.075 0.944882,0.1 0.31496,0.024 0.629921,0.039 0.944882,0.044 0.31496,0.01 0.629921,0 0.944881,-0.011 0.314961,-0.013 0.629922,-0.035 0.944882,-0.067 0.314961,-0.031 0.629922,-0.072 0.944882,-0.1214 0.314961,-0.049 0.629921,-0.1076 0.944882,-0.1743 0.314961,-0.067 0.629921,-0.1417 0.944882,-0.2247 0.314961,-0.083 0.629921,-0.174 0.944882,-0.2722 0.314961,-0.098 0.629921,-0.2036 0.944882,-0.3157 0.31496,-0.112 0.629921,-0.2305 0.944882,-0.3548 0.31496,-0.1243 0.629921,-0.2543 0.944882,-0.3891 0.31496,-0.1348 0.629921,-0.2745 0.944881,-0.4179 0.314961,-0.1435 0.629922,-0.2908 0.944882,-0.4409 0.314961,-0.1502 0.629922,-0.3031 0.944882,-0.4578 0.314961,-0.1546 0.629922,-0.3111 0.944882,-0.4682 0.314961,-0.1571 0.629921,-0.3148 0.944882,-0.4721 0.314961,-0.1573 0.629921,-0.3142 0.944882,-0.4695 0.314961,-0.1553 0.629921,-0.3091 0.944882,-0.4603 0.31496,-0.1512 0.629921,-0.2998 0.944882,-0.4447 0.31496,-0.145 0.629921,-0.2863 0.944882,-0.4229 0.31496,-0.1367 0.629921,-0.2688 0.944881,-0.3953 0.314961,-0.1265 0.629922,-0.2474 0.944882,-0.362 0.314961,-0.1146 0.629922,-0.2228 0.944882,-0.3238 0.314961,-0.1011 0.629922,-0.195 0.944882,-0.2811 0.314961,-0.086 0.629921,-0.1644 0.944882,-0.2344 0.314961,-0.07 0.629921,-0.1316 0.944882,-0.1844 0.314961,-0.053 0.629921,-0.097 0.944882,-0.132 0.31496,-0.035 0.629921,-0.061 0.944882,-0.078 0.31496,-0.017 0.629921,-0.024 0.944882,-0.022 0.31496,0 0.629921,0.013 0.944881,0.034 0.314961,0.021 0.629922,0.05 0.944882,0.089 0.314961,0.039 0.629922,0.086 0.944882,0.1429 0.314961,0.056 0.629922,0.1215 0.944882,0.1948 0.314961,0.073 0.629921,0.155 0.944882,0.2442 0.314961,0.089 0.629921,0.1862 0.944882,0.2901 0.314961,0.1039 0.629921,0.2149 0.944882,0.332 0.31496,0.1171 0.629921,0.2405 0.944882,0.3692 0.31496,0.1287 0.629921,0.2628 0.944882,0.4014 0.31496,0.1385 0.629921,0.2814 0.944881,0.4278 0.314961,0.1464 0.629922,0.2962 0.944882,0.4484 0.314961,0.1522 0.629922,0.3068 0.944882,0.4627 0.314961,0.1559 0.629922,0.3131 0.944882,0.4706 0.314961,0.1574 0.629921,0.3151 0.944882,0.4718 0.314961,0.1568 0.629921,0.3127 0.944882,0.4666 0.314961,0.154 0.629921,0.3059 0.944882,0.4549 0.31496,0.1489 0.629921,0.2948 0.944882,0.4367 0.31496,0.1418 0.629921,0.2796 0.944882,0.4125 0.31496,0.1328 0.629921,0.2606 0.944881,0.3825 0.314961,0.1219 0.629922,0.238 0.944882,0.3473 0.314961,0.1093 0.629922,0.2119 0.944882,0.3072 0.314961,0.095 0.629922,0.1829 0.944882,0.2627 0.314961,0.08 0.629921,0.1515 0.944882,0.2147 0.314961,0.063 0.629921,0.1179 0.944882,0.1637 0.314961,0.046 0.629921,0.083 0.944882,0.1103 0.31496,0.028 0.629921,0.046 0.944882,0.055 0.31496,0.01 0.629921,0.01 0.944882,-2e-4 0.31496,-0.01 0.629921,-0.028 0.944882,-0.056 0.31496,-0.028 0.629921,-0.065 0.944881,-0.1107 0.314961,-0.046 0.629922,-0.1006 0.944882,-0.1639 0.314961,-0.063 0.629922,-0.1352 0.944882,-0.2151 0.314961,-0.08 0.629921,-0.1677 0.944882,-0.263 0.314961,-0.095 0.629921,-0.198 0.944882,-0.3074 0.314961,-0.1094 0.629921,-0.2256 0.944882,-0.3476 0.31496,-0.1219 0.629921,-0.2498 0.944882,-0.3827 0.31496,-0.1329 0.629921,-0.2708 0.944882,-0.4127 0.31496,-0.1419 0.629921,-0.2879 0.944882,-0.4368 0.31496,-0.149 0.629921,-0.301 0.944881,-0.4549 0.314961,-0.154 0.629922,-0.3099 0.944882,-0.4667 0.314961,-0.1568 0.629922,-0.3144 0.944882,-0.4718 0.314961,-0.1575 0.629921,-0.3147 0.944882,-0.4706 0.314961,-0.1559 0.629921,-0.3104 0.944882,-0.4626 0.314961,-0.1522 0.629921,-0.302 0.944882,-0.4483 0.31496,-0.1464 0.629921,-0.2893 0.944882,-0.4277 0.31496,-0.1385 0.629921,-0.2725 0.944882,-0.4012 0.31496,-0.1286 0.629921,-0.2519 0.944882,-0.369 0.31496,-0.1171 0.629921,-0.2279 0.944881,-0.3317 0.314961,-0.1039 0.629922,-0.2007 0.944882,-0.2899 0.314961,-0.089 0.629922,-0.1706 0.944882,-0.2438 0.314961,-0.073 0.629921,-0.1383 0.944882,-0.1946 0.314961,-0.056 0.629921,-0.1039 0.944882,-0.1425 0.314961,-0.039 0.629921,-0.068 0.944882,-0.088 0.31496,-0.02 0.629921,-0.031 0.944882,-0.033 0.31496,0 0.629921,0.01 0.944882,0.023 0.31496,0.017 0.629921,0.043 0.944882,0.078 0.31496,0.035 0.629921,0.079 0.944881,0.1322 0.314961,0.053 0.629922,0.1148 0.944882,0.1848 0.314961,0.07 0.629922,0.1485 0.944882,0.2347 0.314961,0.086 0.629921,0.1802 0.944882,0.2813 0.314961,0.1012 0.629921,0.2095 0.944882,0.3241 0.314961,0.1147 0.629921,0.2357 0.944882,0.3623 0.31496,0.1265 0.629919,0.2587 0.944879,0.3954 0.31496,0.1367 0.62992,0.2781 0.94488,0.4231 0.31497,0.145 0.62993,0.2936 0.94489,0.4448 0.31496,0.1512 0.62992,0.305 0.94488,0.4604 0.31496,0.1553 0.62992,0.3122 0.94488,0.4695 0.31496,0.1573 0.62992,0.3151 0.94488,0.4722 0.31496,0.157 0.62992,0.3134 0.94488,0.4681 0.31496,0.1547 0.62993,0.3076 0.94489,0.4577 0.31496,0.15 0.62992,0.2973 0.94488,0.4407 0.31496,0.1434 0.62992,0.283 0.94488,0.4178 0.31496,0.1347 0.62992,0.2647 0.94488,0.3889 0.31496,0.1242 0.62992,0.2427 0.94488,0.3546 0.31496,0.112 0.62992,0.2174 0.94489,0.3155 0.31496,0.098 0.62992,0.1889 0.94488,0.2718 0.31496,0.083 0.62992,0.1579 0.94488,0.2245 0.31496,0.067 0.62992,0.1247 0.94488,0.1739 0.31496,0.049 0.62992,0.09 0.94488,0.121 0.31496,0.031 0.62992,0.053 0.94488,0.066 0.31497,0.013 0.62993,0.017 0.94489,0.011 0.31496,-0.01 0.62992,-0.021 0.94488,-0.045 0.31496,-0.024 0.62992,-0.058 0.94488,-0.1 0.31496,-0.042 0.62992,-0.094 0.94488,-0.1536 0.31496,-0.06 0.62992,-0.1285 0.94488,-0.2052 0.31496,-0.077 0.62993,-0.1615 0.94489,-0.2538 0.31496,-0.092 0.62992,-0.1923 0.94488,-0.299 0.31496,-0.1067 0.62992,-0.2203 0.94488,-0.34"
       style="opacity:1;fill:none;fill-opacity:1;stroke:#000000;stroke-width:1;stroke-linecap:round;stroke-linejoin:round;stroke-miterlimit:4;stroke-dasharray:1, 3;stroke-dashoffset:0;stroke-opacity:1"
       inkscape:connector-curvature="0"
       sodipodi:nodetypes="ccssssssssssssssssssssssssssssssssssssssssssssssssssssssssssssssssssssssssssssssssssssssssssssssssssssssssssssssssssssssssssssssc" />
    <path
       style="fill:none;fill-rule:evenodd;stroke:#000000;stroke-width:1px;stroke-linecap:round;stroke-linejoin:miter;stroke-opacity:1"
       d="m 4,1048.3622 0,-28"
       id="path6551"
       inkscape:connector-curvature="0"
       sodipodi:nodetypes="cc" />
    <path
       style="fill:none;fill-rule:evenodd;stroke:#000000;stroke-width:1px;stroke-linecap:round;stroke-linejoin:round;stroke-opacity:1"
       d="m 2,1023.3622 2,-3 2,3"
       id="path6553"
       inkscape:connector-curvature="0" />
    <path
       style="fill:none;fill-rule:evenodd;stroke:#000000;stroke-width:1px;stroke-linecap:butt;stroke-linejoin:miter;stroke-opacity:1"
       d="m 4,1036.3622 124,0"
       id="path6555"
       inkscape:connector-curvature="0" />
    <path
       style="fill:#000000;fill-opacity:0;fill-rule:evenodd;stroke:#000000;stroke-width:1px;stroke-linecap:round;stroke-linejoin:round;stroke-opacity:1"
       d="m 125,1034.3622 3,2 -3,2"
       id="path6557"
       inkscape:connector-curvature="0" />
    <text
       xml:space="preserve"
       style="font-style:normal;font-variant:normal;font-weight:normal;font-stretch:normal;font-size:5px;line-height:125%;font-family:'Source Sans Pro';-inkscape-font-specification:'Source Sans Pro, Normal';text-align:start;letter-spacing:0px;word-spacing:0px;writing-mode:lr-tb;text-anchor:start;fill:#000000;fill-opacity:1;stroke:none;stroke-width:1px;stroke-linecap:butt;stroke-linejoin:miter;stroke-opacity:1"
       x="129.66313"
       y="1038.0623"
       id="text6559"
       sodipodi:linespacing="125%"><tspan
         sodipodi:role="line"
         id="tspan6561"
         x="129.66313"
         y="1038.0623">Time</tspan></text>
    <text
       xml:space="preserve"
       style="font-style:normal;font-variant:normal;font-weight:normal;font-stretch:normal;font-size:5px;line-height:125%;font-family:'Source Sans Pro';-inkscape-font-specification:'Source Sans Pro, Normal';text-align:start;letter-spacing:0px;word-spacing:0px;writing-mode:lr-tb;text-anchor:start;fill:#000000;fill-opacity:1;stroke:none;stroke-width:1px;stroke-linecap:butt;stroke-linejoin:miter;stroke-opacity:1"
       x="6.3315625"
       y="1021.5822"
       id="text6563"
       sodipodi:linespacing="125%"><tspan
         sodipodi:role="line"
         id="tspan6565"
         x="6.3315625"
         y="1021.5822">Voltage</tspan></text>
  </g>
</svg>
