<svg xmlns:rdf="http://www.w3.org/1999/02/22-rdf-syntax-ns#" xmlns="http://www.w3.org/2000/svg" height="72" width="88" version="1.1" xmlns:cc="http://creativecommons.org/ns#" xmlns:dc="http://purl.org/dc/elements/1.1/" viewBox="0 0 88.000001 72.000003">
 <g transform="translate(-356.5 -131.3)">
  <g stroke="#000">
   <circle stroke-linejoin="round" cx="372.5" stroke-linecap="round" cy="167.3" r="2" stroke-miterlimit="4.286"/>
   <circle stroke-linejoin="round" stroke-linecap="round" cy="167.3" cx="428.5" stroke-miterlimit="4.286" r="2" fill="#fff"/>
   <path d="m374.5 167.3h22" stroke-width="1px" fill="none"/>
   <path d="m404.5 167.3h22" stroke-width="1px" fill="none"/>
  </g>
  <path d="m396.5 165.3 4 2-4 2z" fill-rule="evenodd"/>
  <path d="m404.5 165.3-4 2 4 2z" fill-rule="evenodd"/>
  <path d="m400.5 167.3c-1-1-4.005-3 0-4 4-0.9989 4-3 0-4s-4-3 0-4 4-3 0-4-4-3 0-4 0-3 0-4" stroke="#000" stroke-width="1px" fill="none"/>
  <path fill-rule="evenodd" d="m400.5 139.3-2 4h4z"/>
  <path d="m400.5 167.3c1 1 4 3 0 4s-4 3 0 4 4 3 0 4-4 3 0 4 4 3 0 4 0 3 0 4" stroke="#000" stroke-width="1px" fill="none"/>
  <path d="m400.5 195.3 2-4h-4z" fill-rule="evenodd"/>
  <g font-size="5px" font-family="&apos;Source Sans Pro&apos;" fill="#000000">
   <text style="word-spacing:0px;letter-spacing:0px" xml:space="preserve" line-height="125%" y="137.06506" x="392.80322"><tspan x="392.80322" y="137.06506">Photon</tspan></text>
   <text style="word-spacing:0px;letter-spacing:0px" xml:space="preserve" line-height="125%" y="176.58252" x="416.40479"><tspan x="416.40479" y="176.58252">Antiparticle</tspan></text>
   <text style="word-spacing:0px;letter-spacing:0px" xml:space="preserve" line-height="125%" y="201.06506" x="392.80322"><tspan x="392.80322" y="201.06506">Photon</tspan></text>
   <text style="word-spacing:0px;letter-spacing:0px" xml:space="preserve" line-height="125%" y="177.06506" x="364.42068"><tspan x="364.42068" y="177.06506">Particle</tspan></text>
  </g>
 </g>
</svg>
