<svg xmlns:rdf="http://www.w3.org/1999/02/22-rdf-syntax-ns#" xmlns="http://www.w3.org/2000/svg" height="64" width="56" version="1.1" xmlns:cc="http://creativecommons.org/ns#" xmlns:dc="http://purl.org/dc/elements/1.1/" viewBox="0 0 56 64.000001">
 <defs>
  <marker id="c" refY="0.0" refX="0.0" overflow="visible" orient="auto">
   <path d="m5.77 0l-8.65 5v-10l8.65 5z" fill-rule="evenodd" transform="scale(.4)" stroke="#404040" stroke-width="1pt" fill="#404040"/>
  </marker>
  <marker id="d" refY="0.0" refX="0.0" overflow="visible" orient="auto">
   <path d="m5.77 0l-8.65 5v-10l8.65 5z" fill-rule="evenodd" transform="scale(.4)" stroke="#404040" stroke-width="1pt" fill="#404040"/>
  </marker>
  <marker id="e" refY="0.0" refX="0.0" overflow="visible" orient="auto">
   <path d="m5.77 0l-8.65 5v-10l8.65 5z" fill-rule="evenodd" transform="scale(.4)" stroke="#404040" stroke-width="1pt" fill="#404040"/>
  </marker>
  <marker id="f" refY="0.0" refX="0.0" orient="auto" overflow="visible">
   <path d="m5.77 0l-8.65 5v-10l8.65 5z" fill-rule="evenodd" transform="scale(.4)" stroke="#404040" stroke-width="1pt" fill="#404040"/>
  </marker>
  <marker id="a" refY="0" refX="0" overflow="visible" orient="auto">
   <path d="m5.77 0-8.65 5v-10l8.65 5z" fill-rule="evenodd" transform="scale(.4)" stroke="#000" stroke-width="1pt"/>
  </marker>
  <marker id="b" refY="0" refX="0" orient="auto" overflow="visible">
   <path d="m5.77 0-8.65 5v-10l8.65 5z" fill-rule="evenodd" transform="scale(.4)" stroke="#000" stroke-width="1pt"/>
  </marker>
  <marker id="g" refY="0" refX="0" orient="auto" overflow="visible">
   <path d="m5.77 0-8.65 5v-10l8.65 5z" fill-rule="evenodd" transform="scale(.4)" stroke="#000" stroke-width="1pt"/>
  </marker>
  <marker id="h" refY="0" refX="0" orient="auto" overflow="visible">
   <path d="m5.77 0-8.65 5v-10l8.65 5z" fill-rule="evenodd" transform="scale(.4)" stroke="#000" stroke-width="1pt"/>
  </marker>
 </defs>
 <g transform="translate(0 -988.4)">
  <path d="m16 1024c2-1 2-3 4-2s4 0 4-2 2-3 4-2 2-1 4-2" stroke="#000" stroke-width="1px" fill="none"/>
  <text style="word-spacing:0px;letter-spacing:0px" xml:space="preserve" font-size="5px" line-height="125%" y="1005.6071" x="14.6175" font-family="&apos;Source Sans Pro&apos;" fill="#000000"><tspan x="14.6175" y="1005.6071">n</tspan></text>
  <g stroke="#000" stroke-width="1px" fill="none">
   <path d="m12 1048 2-12 2-12" marker-mid="url(#h)"/>
   <path d="m32 1016 2-12 2-12" marker-mid="url(#b)"/>
   <path d="m16 1024-2-16-2-16" marker-mid="url(#g)"/>
   <path d="m32 1016 10-5 12-6" marker-mid="url(#a)"/>
  </g>
  <g font-size="5px" font-family="&apos;Source Sans Pro&apos;" fill="#000000">
   <text style="word-spacing:0px;letter-spacing:0px" xml:space="preserve" line-height="125%" y="1001.8181" x="29.638992"><tspan x="29.638992" y="1001.8181">β<tspan style="baseline-shift:super" font-size="65%">+</tspan></tspan></text>
   <text style="word-spacing:0px;letter-spacing:0px" line-height="125%" y="1041.0946" x="14.5275" xml:space="preserve"><tspan y="1041.0946" x="14.5275">p</tspan></text>
   <text style="word-spacing:0px;letter-spacing:0px" xml:space="preserve" line-height="125%" y="1017.2656" x="21.227234"><tspan x="21.227234" y="1017.2656">W<tspan style="baseline-shift:super" font-size="65%">+</tspan></tspan></text>
   <text style="word-spacing:0px;letter-spacing:0px" xml:space="preserve" line-height="125%" y="1009.6071" x="40.849998"><tspan x="40.849998" y="1009.6071">ν</tspan></text>
  </g>
  <g stroke="#404040" stroke-width=".5" fill="none">
   <path d="m8 1048 2-12 2-12" marker-mid="url(#c)"/>
   <path d="m12 1024-2-16-2-16" marker-mid="url(#d)"/>
   <path d="m4 1048 2-12 2-12" marker-mid="url(#f)"/>
   <path d="m8 1024-2-16-2-16" marker-mid="url(#e)"/>
   <path d="m11 1016 1 8-1 6"/>
   <path d="m7 1016 1 8-1 6"/>
  </g>
  <text style="word-spacing:0px;letter-spacing:0px" xml:space="preserve" font-size="3.75px" line-height="125%" y="1051.6747" x="3.4372168" font-family="&apos;Source Sans Pro&apos;" fill="#000000"><tspan x="3.4372168" y="1051.6747">u  d  u</tspan></text>
  <text style="word-spacing:0px;letter-spacing:0px" font-size="3.75px" line-height="125%" y="991.67468" x="3.4165919" font-family="&apos;Source Sans Pro&apos;" xml:space="preserve" fill="#000000"><tspan y="991.67468" x="3.4165919">u  d  d</tspan></text>
 </g>
</svg>
