<svg xmlns:rdf="http://www.w3.org/1999/02/22-rdf-syntax-ns#" xmlns="http://www.w3.org/2000/svg" height="52" width="64" version="1.1" xmlns:cc="http://creativecommons.org/ns#" xmlns:dc="http://purl.org/dc/elements/1.1/" viewBox="0 0 64.000001 52.000001">
 <g transform="translate(0 -1e3)">
  <g stroke-linejoin="round" stroke-linecap="round" fill="none" stroke-width="1px">
   <g stroke="#404040">
    <path d="m12 1040v8h48"/>
    <path d="m11 1042 1-2 1 2"/>
    <path d="m58 1047 2 1-2 1"/>
    <path d="m12 1028v8h48"/>
    <path d="m11 1030 1-2 1 2"/>
    <path d="m58 1035 2 1-2 1"/>
    <path d="m12 1016v8h48"/>
    <path d="m11 1018 1-2 1 2"/>
    <path d="m58 1023 2 1-2 1"/>
   </g>
   <g stroke="#000">
    <path d="m12 1048h4v-4h4v4h4v-4h4v4h4v-4h4v4h4v-4h4v4h4v-4h4v4h4v-4h2"/>
    <path d="m12 1036h4v-4h8v4h8v-4h8v4h8v-4h8v4h2"/>
    <path d="m12 1024h12v-4h24v4h10"/>
   </g>
   <g stroke="#404040">
    <path d="m12 1004v8h48"/>
    <path d="m11 1006 1-2 1 2"/>
    <path d="m58 1011 2 1-2 1"/>
   </g>
   <path d="m12 1012h36v-4h10" stroke="#000"/>
  </g>
  <g font-size="5px" font-family="&apos;Source Sans Pro&apos;" fill="#000000">
   <text style="word-spacing:0px;letter-spacing:0px" xml:space="preserve" line-height="125%" y="1009.6371" x="1.2065821"><tspan x="1.2065821" y="1009.6371">Q<tspan style="baseline-shift:sub" font-size="65%">2</tspan>/C</tspan></text>
   <text style="word-spacing:0px;letter-spacing:0px" xml:space="preserve" line-height="125%" y="1046.0022" x="3.0067186"><tspan x="3.0067186" y="1046.0022">CK</tspan></text>
   <text style="word-spacing:0px;letter-spacing:0px" xml:space="preserve" line-height="125%" y="1033.6177" x="1.2748243"><tspan x="1.2748243" y="1033.6177">Q<tspan style="baseline-shift:sub" font-size="65%">0</tspan>/A</tspan></text>
   <text style="word-spacing:0px;letter-spacing:0px" xml:space="preserve" line-height="125%" y="1021.6371" x="1.159668"><tspan x="1.159668" y="1021.6371">Q<tspan style="baseline-shift:sub" font-size="65%">1</tspan>/B</tspan></text>
  </g>
 </g>
</svg>
