<svg xmlns:rdf="http://www.w3.org/1999/02/22-rdf-syntax-ns#" xmlns="http://www.w3.org/2000/svg" height="40" width="76" version="1.1" xmlns:cc="http://creativecommons.org/ns#" xmlns:dc="http://purl.org/dc/elements/1.1/" viewBox="0 0 76.000001 40">
 <g transform="translate(0 -1012)">
  <g stroke-width="1px" stroke="#000" fill="none">
   <path d="m64 1020v24"/>
   <path stroke-linejoin="round" d="m8 1044 4-16h40v-8"/>
   <path stroke-linejoin="round" d="m8 1020 4 16h40v8"/>
   <path d="m4 1020h64"/>
   <path d="m4 1044h64"/>
  </g>
  <g stroke-linejoin="round" stroke="#000" stroke-linecap="round" fill="#fff">
   <g fill-rule="evenodd" stroke-width="1px">
    <path d="m36 1016v4l-8 4v-8l8 4v4"/>
    <path d="m28 1040v4l8 4v-8l-8 4v4"/>
    <path d="m24 1024v4l-8 4v-8l8 4v4"/>
    <path d="m40 1032v4l8 4v-8l-8 4v4"/>
   </g>
   <g>
    <circle cx="4" cy="1020" r="1"/>
    <circle cy="1044" cx="4" r="1"/>
    <circle cx="68" cy="1020" r="1"/>
    <circle cy="1044" cx="68" r="1"/>
   </g>
  </g>
  <g>
   <circle cx="8" cy="1044" r="1"/>
   <circle cy="1020" cx="8" r="1"/>
   <circle cx="52" cy="1020" r="1"/>
   <circle cy="1044" cx="52" r="1"/>
  </g>
  <g stroke="#000" stroke-width="1px" fill="none">
   <path d="m52 1031h8"/>
   <path d="m52 1033h8"/>
   <path d="m56 1020v11"/>
   <path d="m56 1033v11"/>
  </g>
  <g>
   <circle cx="56" cy="1020" r="1"/>
   <circle cy="1044" cx="56" r="1"/>
   <rect stroke-linejoin="round" height="8" width="4" stroke="#000" stroke-linecap="round" y="1028" x="62" fill="#fff"/>
   <circle cy="1020" cx="64" r="1"/>
   <circle cx="64" cy="1044" r="1"/>
  </g>
  <g stroke="#000" stroke-width="1px" fill="none">
   <path d="m1 1032c1-1 2-1 3 0s2 1 3 0" stroke-linecap="round"/>
   <g>
    <path d="m71 1020h4"/>
    <path d="m73 1018v4"/>
    <path d="m71 1044h4"/>
   </g>
  </g>
 </g>
</svg>
