<?xml version="1.0" encoding="UTF-8" standalone="no"?>
<!-- Created with Inkscape (http://www.inkscape.org/) -->

<svg
   xmlns:dc="http://purl.org/dc/elements/1.1/"
   xmlns:cc="http://creativecommons.org/ns#"
   xmlns:rdf="http://www.w3.org/1999/02/22-rdf-syntax-ns#"
   xmlns:svg="http://www.w3.org/2000/svg"
   xmlns="http://www.w3.org/2000/svg"
   xmlns:sodipodi="http://sodipodi.sourceforge.net/DTD/sodipodi-0.dtd"
   xmlns:inkscape="http://www.inkscape.org/namespaces/inkscape"
   width="140"
   height="36"
   viewBox="0 0 140 36"
   id="svg4914"
   version="1.1"
   inkscape:version="0.91 r"
   sodipodi:docname="fm_voltage_time.svg">
  <sodipodi:namedview
     id="base"
     pagecolor="#ffffff"
     bordercolor="#666666"
     borderopacity="1.0"
     inkscape:pageopacity="0.0"
     inkscape:pageshadow="2"
     inkscape:zoom="8"
     inkscape:cx="61.876487"
     inkscape:cy="19.66579"
     inkscape:document-units="px"
     inkscape:current-layer="layer1"
     showgrid="true"
     inkscape:window-width="1920"
     inkscape:window-height="1028"
     inkscape:window-x="0"
     inkscape:window-y="25"
     inkscape:window-maximized="1"
     units="px"
     inkscape:snap-bbox="true"
     inkscape:snap-bbox-edge-midpoints="true"
     inkscape:snap-bbox-midpoints="true">
    <inkscape:grid
       type="xygrid"
       id="grid6304"
       empspacing="4" />
  </sodipodi:namedview>
  <defs
     id="defs4916" />
  <metadata
     id="metadata4919">
    <rdf:RDF>
      <cc:Work
         rdf:about="">
        <dc:format>image/svg+xml</dc:format>
        <dc:type
           rdf:resource="http://purl.org/dc/dcmitype/StillImage" />
        <dc:title></dc:title>
      </cc:Work>
    </rdf:RDF>
  </metadata>
  <g
     inkscape:label="Layer 1"
     inkscape:groupmode="layer"
     id="layer1"
     transform="translate(0,-1016.3622)">
    <path
       inkscape:connector-curvature="0"
       id="path6484"
       d="m 4,1048.3622 0,-28"
       style="fill:none;fill-rule:evenodd;stroke:#000000;stroke-width:1px;stroke-linecap:butt;stroke-linejoin:miter;stroke-opacity:1" />
    <path
       inkscape:connector-curvature="0"
       id="path6486"
       d="m 4,1036.3622 124,0"
       style="fill:none;fill-rule:evenodd;stroke:#000000;stroke-width:1px;stroke-linecap:butt;stroke-linejoin:miter;stroke-opacity:1" />
    <path
       inkscape:connector-curvature="0"
       id="path6488"
       d="m 125,1034.3622 3,2 -3,2"
       style="fill:none;fill-rule:evenodd;stroke:#000000;stroke-width:1px;stroke-linecap:round;stroke-linejoin:round;stroke-opacity:1" />
    <path
       inkscape:connector-curvature="0"
       id="path6490"
       d="m 2,1023.3622 2,-3 2,3"
       style="fill:none;fill-rule:evenodd;stroke:#000000;stroke-width:1px;stroke-linecap:round;stroke-linejoin:round;stroke-opacity:1" />
    <text
       sodipodi:linespacing="125%"
       id="text6492"
       y="1021.5822"
       x="6.3315625"
       style="font-style:normal;font-variant:normal;font-weight:normal;font-stretch:normal;font-size:5px;line-height:125%;font-family:'Source Sans Pro';-inkscape-font-specification:'Source Sans Pro, Normal';text-align:start;letter-spacing:0px;word-spacing:0px;writing-mode:lr-tb;text-anchor:start;fill:#000000;fill-opacity:1;stroke:none;stroke-width:1px;stroke-linecap:butt;stroke-linejoin:miter;stroke-opacity:1"
       xml:space="preserve"><tspan
         y="1021.5822"
         x="6.3315625"
         id="tspan6494"
         sodipodi:role="line">Voltage</tspan></text>
    <text
       sodipodi:linespacing="125%"
       id="text6496"
       y="1038.0623"
       x="129.66313"
       style="font-style:normal;font-variant:normal;font-weight:normal;font-stretch:normal;font-size:5px;line-height:125%;font-family:'Source Sans Pro';-inkscape-font-specification:'Source Sans Pro, Normal';text-align:start;letter-spacing:0px;word-spacing:0px;writing-mode:lr-tb;text-anchor:start;fill:#000000;fill-opacity:1;stroke:none;stroke-width:1px;stroke-linecap:butt;stroke-linejoin:miter;stroke-opacity:1"
       xml:space="preserve"><tspan
         y="1038.0623"
         x="129.66313"
         id="tspan6498"
         sodipodi:role="line">Time</tspan></text>
    <path
       id="path6516"
       title="sin(8*sin(x)+16*x)"
       d=" M 4.0 1036.3622 C 4.1568627451 1032.59749467 4.3137254902 1028.88165926 4.47058823529 1026.66375126 C 4.62745098039 1024.44584327 4.78431372549 1023.7886783 4.94117647059 1024.93754606 C 5.09803921569 1026.08641381 5.25490196078 1029.02021905 5.41176470588 1032.58474902 C 5.56862745098 1036.14927898 5.72549019608 1040.25790994 5.88235294118 1043.31481299 C 6.03921568627 1046.37171604 6.19607843137 1048.2969469 6.35294117647 1048.36055885 C 6.50980392157 1048.42417081 6.66666666667 1046.61796779 6.82352941176 1043.65732623 C 6.98039215686 1040.69668466 7.13725490196 1036.64983452 7.29411764706 1033.07393665 C 7.45098039216 1029.49803878 7.60784313725 1026.48043452 7.76470588235 1025.15502278 C 7.92156862745 1023.82961104 8.07843137255 1024.23256031 8.23529411765 1026.18463909 C 8.39215686275 1028.13671787 8.54901960784 1031.59659033 8.70588235294 1035.25009363 C 8.86274509804 1038.90359692 9.01960784314 1042.66786174 9.17647058824 1045.15334228 C 9.33333333333 1047.63882283 9.49019607843 1048.78722644 9.64705882353 1048.20677344 C 9.80392156863 1047.62632044 9.96078431373 1045.32625168 10.1176470588 1042.17270893 C 10.2745098039 1039.01916617 10.431372549 1035.07770697 10.5882352941 1031.76940696 C 10.7450980392 1028.46110694 10.9019607843 1025.85545259 11.0588235294 1024.85049298 C 11.2156862745 1023.84553336 11.3725490196 1024.46373806 11.5294117647 1026.44946787 C 11.6862745098 1028.43519767 11.8431372549 1031.75147931 12.0 1035.23182029 C 12.1568627451 1038.71216127 12.3137254902 1042.2911667 12.4705882353 1044.76564076 C 12.6274509804 1047.24011483 12.7843137255 1048.56401159 12.9411764706 1048.33514735 C 13.0980392157 1048.10628312 13.2549019608 1046.32741133 13.4117647059 1043.62271622 C 13.568627451 1040.91802111 13.7254901961 1037.3324225 13.8823529412 1034.03338103 C 14.0392156863 1030.73433956 14.1960784314 1027.77532757 14.3529411765 1026.06590344 C 14.5098039216 1024.35647931 14.6666666667 1023.92367746 14.8235294118 1024.85430314 C 14.9803921569 1025.78492882 15.137254902 1028.06574038 15.2941176471 1030.96703973 C 15.4509803922 1033.86833909 15.6078431373 1037.34940717 15.7647058824 1040.37368135 C 15.9215686275 1043.39795553 16.0784313725 1045.92474578 16.2352941176 1047.2547442 C 16.3921568627 1048.58474262 16.5490196078 1048.7007789 16.7058823529 1047.62032874 C 16.862745098 1046.53987858 17.0196078431 1044.27582691 17.1764705882 1041.49066285 C 17.3333333333 1038.7054988 17.4901960784 1035.43099931 17.6470588235 1032.55088932 C 17.8039215686 1029.67077933 17.9607843137 1027.21617963 18.1176470588 1025.796662 C 18.2745098039 1024.37714436 18.431372549 1024.00723832 18.5882352941 1024.73024629 C 18.7450980392 1025.45325426 18.9019607843 1027.26236627 19.0588235294 1029.6684159 C 19.2156862745 1032.07446554 19.3725490196 1035.05591963 19.5294117647 1037.88558799 C 19.6862745098 1040.71525636 19.8431372549 1043.36931676 20.0 1045.25375141 C 20.1568627451 1047.13818607 20.3137254902 1048.2380327 20.4705882353 1048.35209589 C 20.6274509804 1048.46615909 20.7843137255 1047.59337036 20.9411764706 1045.97189125 C 21.0980392157 1044.35041213 21.2549019608 1041.99110894 21.4117647059 1039.41926806 C 21.568627451 1036.84742719 21.7254901961 1034.07932333 21.8823529412 1031.67548712 C 22.0392156863 1029.27165091 22.1960784314 1027.24643163 22.3529411765 1025.96621073 C 22.5098039216 1024.68598983 22.6666666667 1024.15816672 22.8235294118 1024.43644616 C 22.9803921569 1024.7147256 23.137254902 1025.79821041 23.2941176471 1027.44638793 C 23.4509803922 1029.09456545 23.6078431373 1031.30015532 23.7647058824 1033.65182324 C 23.9215686275 1036.00349115 24.0784313725 1038.49123675 24.2352941176 1040.69701314 C 24.3921568627 1042.90278954 24.5490196078 1044.81758233 24.7058823529 1046.15653619 C 24.862745098 1047.49549004 25.0196078431 1048.25309773 25.1764705882 1048.35113123 C 25.3333333333 1048.44916473 25.4901960784 1047.88648715 25.6470588235 1046.78779878 C 25.8039215686 1045.6891104 25.9607843137 1044.05704566 26.1176470588 1042.1549138 C 26.2745098039 1040.25278195 26.431372549 1038.085509 26.5882352941 1035.96152636 C 26.7450980392 1033.83754372 26.9019607843 1031.76236558 27.0588235294 1029.9996915 C 27.2156862745 1028.23701742 27.3725490196 1026.79153316 27.5294117647 1025.8200115 C 27.6862745098 1024.84848984 27.8431372549 1024.35392674 28.0 1024.36231995 C 28.1568627451 1024.37071316 28.3137254902 1024.88310129 28.4705882353 1025.80717917 C 28.6274509804 1026.73125704 28.7843137255 1028.06631369 28.9411764706 1029.63977364 C 29.0980392157 1031.2132336 29.2549019608 1033.02313188 29.4117647059 1034.86585835 C 29.568627451 1036.70858482 29.7254901961 1038.58151836 29.8823529412 1040.297017 C 30.0392156863 1042.01251564 30.1960784314 1043.56786074 30.3529411765 1044.82655191 C 30.5098039216 1046.08524308 30.6666666667 1047.04489966 30.8235294118 1047.63885427 C 30.9803921569 1048.23280888 31.137254902 1048.4592992 31.2941176471 1048.32361585 C 31.4509803922 1048.18793251 31.6078431373 1047.68906185 31.7647058824 1046.89302176 C 31.9215686275 1046.09698167 32.0784313725 1045.00351331 32.2352941176 1043.71970199 C 32.3921568627 1042.43589068 32.5490196078 1040.96214784 32.7058823529 1039.42374362 C 32.862745098 1037.8853394 33.0196078431 1036.2832132 33.1764705882 1034.73916135 C 33.3333333333 1033.1951095 33.4901960784 1031.71042745 33.6470588235 1030.38612328 C 33.8039215686 1029.06181911 33.9607843137 1027.8993651 34.1176470588 1026.96765867 C 34.2745098039 1026.03595224 34.431372549 1025.33647274 34.5882352941 1024.90100967 C 34.7450980392 1024.46554659 34.9019607843 1024.2954381 35.0588235294 1024.38603885 C 35.2156862745 1024.4766396 35.3725490196 1024.82902819 35.5294117647 1025.40720636 C 35.6862745098 1025.98538453 35.8431372549 1026.79008785 36.0 1027.76193916 C 36.1568627451 1028.73379047 36.3137254902 1029.87313599 36.4705882353 1031.1065896 C 36.6274509804 1032.34004321 36.7843137255 1033.66755229 36.9411764706 1035.01119542 C 37.0980392157 1036.35483854 37.2549019608 1037.714189 37.4117647059 1039.0153752 C 37.568627451 1040.31656139 37.7254901961 1041.55883689 37.8823529412 1042.67940982 C 38.0392156863 1043.79998276 38.1960784314 1044.79786489 38.3529411765 1045.62645395 C 38.5098039216 1046.455043 38.6666666667 1047.11320325 38.8235294118 1047.57359726 C 38.9803921569 1048.03399127 39.137254902 1048.29543892 39.2941176471 1048.35098097 C 39.4509803922 1048.40652302 39.6078431373 1048.25503909 39.7647058824 1047.90929808 C 39.9215686275 1047.56355706 40.0784313725 1047.0225961 40.2352941176 1046.31677008 C 40.3921568627 1045.61094407 40.5490196078 1044.73953233 40.7058823529 1043.74714595 C 40.862745098 1042.75475958 41.0196078431 1041.64098573 41.1764705882 1040.46048498 C 41.3333333333 1039.27998422 41.4901960784 1038.03269338 41.6470588235 1036.77854189 C 41.8039215686 1035.5243904 41.9607843137 1034.26367916 42.1176470588 1033.05654316 C 42.2745098039 1031.84940716 42.431372549 1030.69649613 42.5882352941 1029.65308673 C 42.7450980392 1028.60967733 42.9019607843 1027.67672253 43.0588235294 1026.89985584 C 43.2156862745 1026.12298914 43.3725490196 1025.50339192 43.5294117647 1025.0728328 C 43.6862745098 1024.64227368 43.8431372549 1024.4020615 44.0 1024.36673364 C 44.1568627451 1024.33140577 44.3137254902 1024.50227692 44.4705882353 1024.87444029 C 44.6274509804 1025.24660366 44.7843137255 1025.82124551 44.9411764706 1026.57324755 C 45.0980392157 1027.32524959 45.2549019608 1028.25553322 45.4117647059 1029.31970974 C 45.568627451 1030.38388626 45.7254901961 1031.58248672 45.8823529412 1032.85469853 C 46.0392156863 1034.12691033 46.1960784314 1035.47277471 46.3529411765 1036.81988914 C 46.5098039216 1038.16700356 46.6666666667 1039.51486203 46.8235294118 1040.78620236 C 46.9803921569 1042.05754269 47.137254902 1043.25131164 47.2941176471 1044.29368833 C 47.4509803922 1045.33606503 47.6078431373 1046.22551881 47.7647058824 1046.90092945 C 47.9215686275 1047.5763401 48.0784313725 1048.0358456 48.2352941176 1048.24031726 C 48.3921568627 1048.44478891 48.5490196078 1048.39225302 48.7058823529 1048.0736698 C 48.862745098 1047.75508658 49.0196078431 1047.16864882 49.1764705882 1046.3408685 C 49.3333333333 1045.51308818 49.4901960784 1044.44263167 49.6470588235 1043.19289834 C 49.8039215686 1041.94316501 49.9607843137 1040.51358647 50.1176470588 1039.00036882 C 50.2745098039 1037.48715117 50.431372549 1035.89071105 50.5882352941 1034.32981234 C 50.7450980392 1032.76891364 50.9019607843 1031.2450446 51.0588235294 1029.88326602 C 51.2156862745 1028.52148743 51.3725490196 1027.32425789 51.5294117647 1026.40206228 C 51.6862745098 1025.47986667 51.8431372549 1024.8358123 52.0 1024.54315735 C 52.1568627451 1024.25050239 52.3137254902 1024.31246785 52.4705882353 1024.74483985 C 52.6274509804 1025.17721186 52.7843137255 1025.98263804 52.9411764706 1027.10664601 C 53.0980392157 1028.23065397 53.2549019608 1029.6746011 53.4117647059 1031.31341134 C 53.568627451 1032.95222158 53.7254901961 1034.78538952 53.8823529412 1036.63288854 C 54.0392156863 1038.48038757 54.1960784314 1040.33961825 54.3529411765 1042.00783238 C 54.5098039216 1043.67604651 54.6666666667 1045.14882953 54.8235294118 1046.24577037 C 54.9803921569 1047.34271121 55.137254902 1048.05844356 55.2941176471 1048.28413954 C 55.4509803922 1048.50983552 55.6078431373 1048.24054037 55.7647058824 1047.47969338 C 55.9215686275 1046.71884639 56.0784313725 1045.46348616 56.2352941176 1043.84713074 C 56.3921568627 1042.23077532 56.5490196078 1040.25379807 56.7058823529 1038.16307799 C 56.862745098 1036.07235791 57.0196078431 1033.87216563 57.1764705882 1031.86755603 C 57.3333333333 1029.86294644 57.4901960784 1028.06142965 57.6470588235 1026.74066756 C 57.8039215686 1025.41990546 57.9607843137 1024.58864328 58.1176470588 1024.40270296 C 58.2745098039 1024.21676263 58.431372549 1024.68314345 58.5882352941 1025.76397461 C 58.7450980392 1026.84480577 58.9019607843 1028.5422899 59.0588235294 1030.60800228 C 59.2156862745 1032.67371467 59.3725490196 1035.10319415 59.5294117647 1037.49583267 C 59.6862745098 1039.88847119 59.8431372549 1042.23361866 60.0 1044.10731871 C 60.1568627451 1045.98101875 60.3137254902 1047.36972423 60.4705882353 1047.98928247 C 60.6274509804 1048.60884071 60.7843137255 1048.44821258 60.9411764706 1047.49901411 C 61.0980392157 1046.54981564 61.2549019608 1044.80906119 61.4117647059 1042.5866545 C 61.568627451 1040.3642478 61.7254901961 1037.66825525 61.8823529412 1035.03543627 C 62.0392156863 1032.40261729 62.1960784314 1029.8503165 62.3529411765 1027.93017982 C 62.5098039216 1026.01004313 62.6666666667 1024.74177287 62.8235294118 1024.43623936 C 62.9803921569 1024.13070585 63.137254902 1024.80023968 63.2941176471 1026.33420748 C 63.4509803922 1027.86817529 63.6078431373 1030.26362638 63.7647058824 1032.99096804 C 63.9215686275 1035.71830971 64.0784313725 1038.75816288 64.2352941176 1041.38283752 C 64.3921568627 1044.00751217 64.5490196078 1046.18917142 64.7058823529 1047.36302652 C 64.862745098 1048.53688163 65.0196078431 1048.68120256 65.1764705882 1047.71949089 C 65.3333333333 1046.75777921 65.4901960784 1044.68825559 65.6470588235 1042.0192092 C 65.8039215686 1039.3501628 65.9607843137 1036.10408679 66.1176470588 1033.14475371 C 66.2745098039 1030.18542062 66.431372549 1027.54951105 66.5882352941 1025.98442594 C 66.7450980392 1024.41934084 66.9019607843 1023.95490726 67.0588235294 1024.75967876 C 67.2156862745 1025.56445026 67.3725490196 1027.64110252 67.5294117647 1030.41999432 C 67.6862745098 1033.19888612 67.8431372549 1036.64990519 68.0 1039.75775483 C 68.1568627451 1042.86560447 68.3137254902 1045.58316151 68.4705882353 1047.06655103 C 68.6274509804 1048.54994054 68.7843137255 1048.76512719 68.9411764706 1047.61116501 C 69.0980392157 1046.45720282 69.2549019608 1043.93858783 69.4117647059 1040.82509671 C 69.568627451 1037.71160558 69.7254901961 1034.04773106 69.8823529412 1031.01229843 C 70.0392156863 1027.97686581 70.1960784314 1025.62681928 70.3529411765 1024.75563693 C 70.5098039216 1023.88445458 70.6666666667 1024.5210888 70.8235294118 1026.4823974 C 70.9803921569 1028.443706 71.137254902 1031.70615335 71.2941176471 1035.17820828 C 71.4509803922 1038.6502632 71.6078431373 1042.268496 71.7647058824 1044.77820836 C 71.9215686275 1047.28792071 72.0784313725 1048.63061503 72.2352941176 1048.31376973 C 72.3921568627 1047.99692443 72.5490196078 1046.012721 72.7058823529 1043.04458204 C 72.862745098 1040.07644307 73.0196078431 1036.17751338 73.1764705882 1032.74472049 C 73.3333333333 1029.3119276 73.4901960784 1026.42198195 73.6470588235 1025.13844308 C 73.8039215686 1023.85490422 73.9607843137 1024.21843419 74.1176470588 1026.11277264 C 74.2745098039 1028.0071111 74.431372549 1031.4017521 74.5882352941 1035.04463576 C 74.7450980392 1038.68751942 74.9019607843 1042.49748258 75.0588235294 1045.04219109 C 75.2156862745 1047.5868996 75.3725490196 1048.79812426 75.5294117647 1048.20737944 C 75.6862745098 1047.61663461 75.8431372549 1045.22535117 76.0 1041.93655782 C 76.1568627451 1038.64776447 76.3137254902 1034.53438505 76.4705882353 1031.17268695 C 76.6274509804 1027.81098886 76.7843137255 1025.28759726 76.9411764706 1024.57879306 C 77.0980392157 1023.86998885 77.2549019608 1025.00445548 77.4117647059 1027.54530401 C 77.568627451 1030.08615255 77.7254901961 1033.97864176 77.8823529412 1037.70979205 C 78.0392156863 1041.44094234 78.1960784314 1044.91650894 78.3529411765 1046.78265538 C 78.5098039216 1048.64880181 78.6666666667 1048.8498833 78.8235294118 1047.31164908 C 78.9803921569 1045.77341486 79.137254902 1042.52570439 79.2941176471 1038.84272088 C 79.4509803922 1035.15973736 79.6078431373 1031.13238407 79.7647058824 1028.33363042 C 79.9215686275 1025.53487676 80.0784313725 1024.0410621 80.2352941176 1024.42566466 C 80.3921568627 1024.81026723 80.5490196078 1027.07182464 80.7058823529 1030.31652302 C 80.862745098 1033.56122141 81.0196078431 1037.71181927 81.1764705882 1041.15175232 C 81.3333333333 1044.59168537 81.4901960784 1047.23260358 81.6470588235 1048.06378861 C 81.8039215686 1048.89497365 81.9607843137 1047.88937735 82.1176470588 1045.45487313 C 82.2745098039 1043.02036891 82.431372549 1039.21155126 82.5882352941 1035.50040248 C 82.7450980392 1031.7892537 82.9019607843 1028.26549639 83.0588235294 1026.26233577 C 83.2156862745 1024.25917514 83.3725490196 1023.8285707 83.5294117647 1025.1075808 C 83.6862745098 1026.3865909 83.8431372549 1029.34991644 84.0 1032.86337584 C 84.1568627451 1036.37683524 84.3137254902 1040.36127866 84.4705882353 1043.33606387 C 84.6274509804 1046.31084908 84.7843137255 1048.20697383 84.9411764706 1048.35275377 C 85.0980392157 1048.49853371 85.2549019608 1046.88722874 85.4117647059 1044.13853114 C 85.568627451 1041.38983355 85.7254901961 1037.56047272 85.8823529412 1034.04190058 C 86.0392156863 1030.52332843 86.1960784314 1027.38933582 86.3529411765 1025.7347376 C 86.5098039216 1024.08013938 86.6666666667 1023.94057025 86.8235294118 1025.32610613 C 86.9803921569 1026.71164201 87.137254902 1029.59706141 87.2941176471 1032.95521109 C 87.4509803922 1036.31336077 87.6078431373 1040.08102163 87.7647058824 1042.97835637 C 87.9215686275 1045.87569111 88.0784313725 1047.8487341 88.2352941176 1048.2717391 C 88.3921568627 1048.69474409 88.5490196078 1047.5589385 88.7058823529 1045.28163345 C 88.862745098 1043.0043284 89.0196078431 1039.62341007 89.1764705882 1036.25288457 C 89.3333333333 1032.88235907 89.4901960784 1029.57720739 89.6470588235 1027.36874462 C 89.8039215686 1025.16028186 89.9607843137 1024.08355129 90.1176470588 1024.4286608 C 90.2745098039 1024.77377031 90.431372549 1026.5361313 90.5882352941 1029.13600713 C 90.7450980392 1031.73588296 90.9019607843 1035.13649012 91.0588235294 1038.31141197 C 91.2156862745 1041.48633381 91.3725490196 1044.39243411 91.5294117647 1046.20890333 C 91.6862745098 1048.02537255 91.8431372549 1048.72857869 92.0 1048.16746731 C 92.1568627451 1047.60635594 92.3137254902 1045.78759931 92.4705882353 1043.25884181 C 92.6274509804 1040.73008432 92.7843137255 1037.52050881 92.9411764706 1034.50998906 C 93.0980392157 1031.4994693 93.2549019608 1028.72093652 93.4117647059 1026.88016971 C 93.568627451 1025.0394029 93.7254901961 1024.15545789 93.8823529412 1024.40561291 C 94.0392156863 1024.65576793 94.1960784314 1026.03770379 94.3529411765 1028.16142716 C 94.5098039216 1030.28515052 94.6666666667 1033.1314037 94.8235294118 1035.99309633 C 94.9803921569 1038.85478896 95.137254902 1041.70749945 95.2941176471 1043.89908922 C 95.4509803922 1046.09067899 95.6078431373 1047.60353567 95.7647058824 1048.13752625 C 95.9215686275 1048.67151684 96.0784313725 1048.22244298 96.2352941176 1046.93855072 C 96.3921568627 1045.65465845 96.5490196078 1043.54463239 96.7058823529 1041.09039977 C 96.862745098 1038.63616715 97.0196078431 1035.8534679 97.1764705882 1033.31733917 C 97.3333333333 1030.78121045 97.4901960784 1028.50697632 97.6470588235 1026.91893666 C 97.8039215686 1025.33089699 97.9607843137 1024.43823801 98.1176470588 1024.36689097 C 98.2745098039 1024.29554392 98.431372549 1025.04637764 98.5882352941 1026.43613494 C 98.7450980392 1027.82589225 98.9019607843 1029.84842276 99.0588235294 1032.11637166 C 99.2156862745 1034.38432057 99.3725490196 1036.88794754 99.5294117647 1039.19692293 C 99.6862745098 1041.50589832 99.8431372549 1043.61071811 100.0 1045.18801709 C 100.156862745 1046.76531606 100.31372549 1047.80867779 100.470588235 1048.19187852 C 100.62745098 1048.57507924 100.784313725 1048.29602305 100.941176471 1047.43836499 C 101.098039216 1046.58070693 101.254901961 1045.14635432 101.411764706 1043.37552511 C 101.568627451 1041.60469591 101.725490196 1039.50195752 101.882352941 1037.37408554 C 102.039215686 1035.24621355 102.196078431 1033.09873007 102.352941176 1031.21182174 C 102.509803922 1029.32491342 102.666666667 1027.70354494 102.823529412 1026.53159015 C 102.980392157 1025.35963535 103.137254902 1024.64050684 103.294117647 1024.42920883 C 103.450980392 1024.21791082 103.607843137 1024.515911 103.764705882 1025.25448055 C 103.921568627 1025.99305009 104.078431373 1027.17182941 104.235294118 1028.63192442 C 104.392156863 1030.09201944 104.549019608 1031.83169208 104.705882353 1033.64988828 C 104.862745098 1035.46808449 105.019607843 1037.36227707 105.176470588 1039.13773934 C 105.333333333 1040.91320162 105.490196078 1042.56719389 105.647058824 1043.94968408 C 105.803921569 1045.33217428 105.960784314 1046.44067727 106.117647059 1047.19234508 C 106.274509804 1047.9440129 106.431372549 1048.33693025 106.588235294 1048.36103793 C 106.745098039 1048.38514561 106.901960784 1048.03925997 107.058823529 1047.37744572 C 107.215686275 1046.71563148 107.37254902 1045.73746744 107.529411765 1044.54288903 C 107.68627451 1043.34831063 107.843137255 1041.93759172 108.0 1040.43394702 C 108.156862745 1038.93030231 108.31372549 1037.33456857 108.470588235 1035.77099021 C 108.62745098 1034.20741185 108.784313725 1032.67722103 108.941176471 1031.28722359 C 109.098039216 1029.89722614 109.254901961 1028.6488704 109.411764706 1027.61880519 C 109.568627451 1026.58873998 109.725490196 1025.77845675 109.882352941 1025.22807838 C 110.039215686 1024.67770002 110.196078431 1024.38860726 110.352941176 1024.363909 C 110.509803922 1024.33921074 110.666666667 1024.58005147 110.823529412 1025.05675932 C 110.980392157 1025.53346716 111.137254902 1026.24685886 111.294117647 1027.14194909 C 111.450980392 1028.03703933 111.607843137 1029.11426251 111.764705882 1030.30250151 C 111.921568627 1031.4907405 112.078431373 1032.79002994 112.235294118 1034.12266836 C 112.392156863 1035.45530678 112.549019608 1036.82094653 112.705882353 1038.1441523 C 112.862745098 1039.46735807 113.019607843 1040.7474482 113.176470588 1041.91866886 C 113.333333333 1043.08988951 113.490196078 1044.15129829 113.647058824 1045.05237515 C 113.803921569 1045.95345201 113.960784314 1046.69308517 114.117647059 1047.23951302 C 114.274509804 1047.78594086 114.431372549 1048.13798405 114.588235294 1048.2841732 C 114.745098039 1048.43036235 114.901960784 1048.36955511 115.058823529 1048.11029284 C 115.215686275 1047.85103057 115.37254902 1047.39230772 115.529411765 1046.76083875 C 115.68627451 1046.12936979 115.843137255 1045.32437406 116.0 1044.38764525 C 116.156862745 1043.45091645 116.31372549 1042.38196913 116.470588235 1041.23363696 C 116.62745098 1040.0853048 116.784313725 1038.85744502 116.941176471 1037.60925214 C 117.098039216 1036.36105927 117.254901961 1035.09275391 117.411764706 1033.86486612 C 117.568627451 1032.63697834 117.725490196 1031.45008356 117.882352941 1030.36095957 C 118.039215686 1029.27183559 118.196078431 1028.28137373 118.352941176 1027.43772873 C 118.509803922 1026.59408374 118.666666667 1025.89839429 118.823529412 1025.38582089 C 118.980392157 1024.8732475 119.137254902 1024.54508065 119.294117647 1024.41990543 C 119.450980392 1024.29473021 119.607843137 1024.37387131 119.764705882 1024.65684466 C 119.921568627 1024.939818 120.078431373 1025.42785013 120.235294118 1026.10027656 C 120.392156863 1026.772703 120.549019608 1027.63051514 120.705882353 1028.63341126 C 120.862745098 1029.63630738 121.019607843 1030.78491461 121.176470588 1032.02170701 C 121.333333333 1033.2584994 121.490196078 1034.58363321 121.647058824 1035.92675338 C 121.803921569 1037.26987354 121.960784314 1038.63059735 122.117647059 1039.93207029 C 122.274509804 1041.23354323 122.431372549 1042.47482972 122.588235294 1043.5805713 C 122.745098039 1044.68631288 122.901960784 1045.65507464 123.058823529 1046.42211023 C 123.215686275 1047.18914583 123.37254902 1047.75265007 123.529411765 1048.06786842 C 123.68627451 1048.38308677 123.843137255 1048.44804797 124.0 1048.24646924"
       style="opacity:1;fill:none;fill-opacity:1;stroke:#000000;stroke-width:1;stroke-linecap:round;stroke-linejoin:round;stroke-miterlimit:4;stroke-dasharray:none;stroke-dashoffset:0;stroke-opacity:1" />
  </g>
</svg>
