<svg xmlns:rdf="http://www.w3.org/1999/02/22-rdf-syntax-ns#" xmlns="http://www.w3.org/2000/svg" height="36" width="140" version="1.1" xmlns:cc="http://creativecommons.org/ns#" xmlns:dc="http://purl.org/dc/elements/1.1/" viewBox="0 0 140 36">
 <g transform="translate(0 -1016)">
  <g stroke="#000" stroke-width="1px" fill="none">
   <path d="m4 1048v-28"/>
   <path d="m4 1036h124"/>
   <path stroke-linejoin="round" d="m125 1034 3 2-3 2" stroke-linecap="round"/>
   <path stroke-linejoin="round" d="m2 1023 2-3 2 3" stroke-linecap="round"/>
  </g>
  <text style="word-spacing:0px;letter-spacing:0px" font-size="5px" line-height="125%" y="1021.5822" x="6.3315625" font-family="&apos;Source Sans Pro&apos;" xml:space="preserve" fill="#000000"><tspan y="1021.5822" x="6.3315625">Voltage</tspan></text>
  <text style="word-spacing:0px;letter-spacing:0px" font-size="5px" line-height="125%" y="1038.0623" x="129.66313" font-family="&apos;Source Sans Pro&apos;" xml:space="preserve" fill="#000000"><tspan y="1038.0623" x="129.66313">Time</tspan></text>
  <path stroke-linejoin="round" d="m4 1036c0.157-3 0.314-7 0.471-9 0.156-3 0.313-3 0.47-2s0.314 4 0.471 8c0.157 3 0.313 7 0.47 10s0.314 5 0.471 5 0.314-1 0.471-4c0.156-3 0.313-7 0.47-11s0.314-7 0.471-8 0.313-1 0.47 1 0.314 6 0.471 9c0.157 4 0.314 8 0.47 10 0.157 3 0.314 4 0.471 3 0.157 0 0.314-3 0.473-6 0.15-3 0.31-7 0.47-10 0.16-4 0.31-6 0.47-7s0.31-1 0.47 1 0.31 6 0.47 9c0.16 4 0.31 7 0.47 10 0.16 2 0.31 4 0.47 3 0.16 0 0.31-2 0.47-4 0.16-3 0.32-7 0.47-10 0.16-3 0.32-6 0.47-8 0.16-2 0.32-2 0.47-1 0.16 1 0.32 3 0.47 6 0.16 3 0.32 6 0.47 9 0.16 3 0.32 6 0.48 7 0.15 2 0.31 2 0.47 1 0.15-1 0.31-4 0.47-7 0.15-2 0.31-6 0.47-8 0.15-3 0.31-6 0.47-7 0.15-2 0.31-2 0.47-1 0.16 0 0.31 2 0.47 5 0.16 2 0.31 5 0.47 8s0.31 5 0.47 7 0.31 3 0.47 3 0.31 0 0.47-2 0.31-4 0.47-7c0.16-2 0.32-5 0.47-7 0.16-3 0.32-5 0.47-6 0.16-1 0.32-2 0.47-2 0.16 1 0.32 2 0.47 3 0.16 2 0.32 4 0.47 7 0.16 2 0.32 4 0.48 7 0.15 2 0.31 4 0.47 5 0.15 1 0.31 2 0.47 2 0.15 0 0.31 0 0.47-1 0.15-1 0.31-3 0.47-5 0.15-2 0.31-4 0.47-6s0.31-4 0.47-6 0.31-3 0.47-4 0.31-2 0.47-2 0.31 1 0.47 2 0.31 2 0.47 4c0.16 1 0.31 3 0.47 5s0.32 4 0.47 5c0.16 2 0.32 4 0.47 5 0.16 1 0.32 2 0.47 3h0.47c0.16 0 0.32 0 0.47-1l0.48-3c0.15-2 0.31-3 0.47-5 0.15-1 0.31-3 0.47-4 0.15-2 0.31-3 0.47-5 0.15-1 0.31-2 0.47-3 0.15-1 0.31-2 0.47-2 0.16-1 0.31-1 0.47-1s0.31 1 0.47 1c0.16 1 0.31 2 0.47 3s0.31 2 0.47 3 0.31 3 0.47 4 0.31 3 0.47 4 0.32 3 0.47 4c0.16 1 0.32 2 0.47 3 0.16 0 0.32 1 0.47 2h0.47 0.47c0.16 0 0.32-1 0.48-2 0.15 0 0.31-1 0.47-2 0.15-1 0.31-2 0.47-4 0.15-1 0.31-2 0.47-3 0.15-1 0.31-3 0.47-4 0.15-1 0.31-2 0.47-3s0.31-2 0.47-3 0.31-1 0.47-2c0.16 0 0.31-1 0.47-1s0.31 1 0.47 1 0.31 1 0.47 2c0.16 0 0.31 1 0.47 2s0.32 3 0.47 4c0.16 1 0.32 2 0.47 4 0.16 1 0.32 3 0.47 4 0.16 1 0.32 2 0.47 3 0.16 1 0.32 2 0.47 3 0.16 1 0.32 1 0.48 1h0.47c0.15 0 0.31-1 0.47-2 0.15 0 0.31-2 0.47-3 0.15-1 0.31-2 0.47-4 0.15-2 0.31-3 0.47-5 0.16-1 0.31-3 0.47-4s0.31-3 0.47-4 0.31-1 0.47-1c0.16-1 0.31-1 0.47 0 0.16 0 0.31 1 0.47 2s0.31 3 0.47 4c0.16 2 0.32 4 0.47 6 0.16 1 0.32 3 0.47 5 0.16 2 0.32 3 0.47 4 0.16 1 0.32 2 0.47 2 0.16 1 0.32 0 0.47-1 0.16 0 0.32-2 0.48-3 0.15-2 0.31-4 0.47-6 0.15-2 0.31-4 0.47-6 0.15-2 0.31-4 0.47-5 0.15-2 0.31-2 0.47-3 0.15 0 0.31 1 0.47 2s0.31 3 0.47 5 0.31 4 0.47 6c0.16 3 0.31 5 0.47 7s0.31 3 0.47 4 0.31 0 0.47-1c0.16 0 0.31-2 0.47-4 0.16-3 0.32-5 0.47-8 0.16-3 0.32-5 0.47-7 0.16-2 0.32-3 0.47-4 0.16 0 0.32 1 0.47 2 0.16 2 0.32 4 0.47 7 0.16 3 0.32 6 0.48 8 0.15 3 0.31 5 0.47 6 0.15 2 0.31 2 0.47 1 0.15-1 0.31-3 0.47-6 0.15-3 0.31-6 0.47-9 0.15-3 0.31-5 0.47-7s0.31-2 0.47-1 0.31 3 0.47 5c0.16 3 0.31 7 0.47 10s0.31 6 0.47 7c0.16 2 0.31 2 0.47 1 0.16-2 0.31-4 0.47-7s0.32-7 0.47-10c0.16-3 0.32-5 0.47-6 0.16-1 0.32 0 0.47 1 0.16 2 0.32 6 0.47 9 0.16 4 0.32 7 0.47 10 0.16 2 0.32 4 0.48 3 0.15 0 0.31-2 0.47-5 0.15-3 0.31-7 0.47-10 0.15-4 0.31-7 0.47-8 0.15-1 0.31-1 0.47 1 0.15 2 0.31 5 0.47 9s0.31 7 0.47 10 0.31 4 0.47 3c0.16 0 0.31-3 0.47-6s0.31-7 0.47-11c0.16-3 0.31-6 0.47-6 0.16-1 0.31 0 0.47 3 0.16 2 0.32 6 0.47 10 0.16 3 0.32 7 0.47 9 0.16 2 0.32 2 0.47 0 0.16-1 0.32-4 0.47-8 0.16-4 0.32-8 0.47-11 0.16-2 0.32-4 0.48-4 0.15 1 0.31 3 0.47 6 0.15 4 0.31 8 0.47 11 0.15 4 0.31 6 0.47 7 0.15 1 0.31 0 0.47-3 0.15-2 0.31-6 0.47-9 0.16-4 0.31-8 0.47-10s0.31-2 0.47-1 0.31 4 0.47 8c0.16 3 0.31 7 0.47 10s0.31 5 0.47 5 0.31-1 0.47-4 0.32-6 0.47-10c0.16-3 0.32-7 0.47-8 0.16-2 0.32-2 0.47-1 0.16 2 0.32 5 0.47 8 0.16 3 0.32 7 0.47 10 0.16 3 0.32 5 0.48 5 0.15 1 0.31 0 0.47-3 0.15-2 0.31-5 0.47-9 0.15-3 0.31-6 0.47-9 0.15-2 0.31-3 0.47-3 0.15 1 0.31 3 0.47 5 0.16 3 0.31 6 0.47 9s0.31 6 0.47 8 0.31 3 0.47 2c0.16 0 0.31-2 0.47-5 0.16-2 0.31-5 0.47-8 0.16-4 0.31-6 0.47-8s0.32-3 0.47-3c0.16 1 0.32 2 0.47 4 0.16 2 0.32 5 0.47 8 0.16 3 0.32 6 0.47 8 0.16 2 0.32 4 0.47 4 0.16 1 0.32 0 0.48-1 0.15-1 0.31-3 0.47-6 0.15-2 0.31-5 0.47-8 0.15-2 0.31-4 0.47-6 0.15-2 0.31-3 0.47-3 0.15 0 0.31 1 0.47 2 0.16 2 0.31 4 0.47 6s0.31 5 0.47 7c0.16 3 0.31 5 0.47 6 0.2 2 0.3 3 0.5 3 0.1 1 0.3 0 0.4-1 0.2 0 0.4-2 0.5-4 0.2-1 0.3-3 0.5-6 0.1-2 0.3-4 0.5-6 0.1-2 0.3-3 0.4-4 0.2-2 0.3-2 0.5-3 0.2 0 0.3 1 0.5 1 0.1 1 0.3 2 0.4 4 0.2 1 0.3 3 0.5 5 0.2 1 0.3 3 0.5 5 0.1 2 0.3 4 0.4 5 0.2 1 0.4 2 0.5 3 0.2 1 0.3 1 0.5 1 0.1 0 0.3 0 0.5-1 0.1 0 0.3-1 0.4-2l0.5-5c0.2-1 0.3-3 0.5-4 0.1-2 0.3-3 0.4-5 0.2-1 0.4-2 0.5-3 0.2-1 0.3-2 0.5-3 0.1 0 0.3-1 0.5-1 0.1 0 0.3 1 0.4 1 0.2 1 0.3 1 0.5 2s0.3 2 0.5 3l0.4 4c0.2 1 0.3 3 0.5 4s0.3 3 0.5 4c0.1 1 0.3 2 0.4 3 0.2 1 0.4 2 0.5 2 0.2 1 0.3 1 0.5 1h0.5c0.1 0 0.3-1 0.4-1 0.2-1 0.3-2 0.5-3s0.3-2 0.5-3c0.1-1 0.3-2 0.4-3 0.2-2 0.4-3 0.5-4 0.2-1 0.3-3 0.5-4 0.1-1 0.3-2 0.5-3 0.1 0 0.3-1 0.4-2 0.2 0 0.3 0 0.5-1 0.2 0 0.3 0 0.5 1 0.1 0 0.3 0 0.4 1 0.2 1 0.3 2 0.5 3s0.3 2 0.5 3l0.4 4c0.2 1 0.4 3 0.5 4 0.2 1 0.3 2 0.5 4 0.1 1 0.3 2 0.5 2 0.1 1 0.3 2 0.4 2h0.5" title="sin(8*sin(x)+16*x)" stroke="#000" stroke-linecap="round" fill="none"/>
 </g>
</svg>
