<svg xmlns:rdf="http://www.w3.org/1999/02/22-rdf-syntax-ns#" xmlns="http://www.w3.org/2000/svg" height="68" width="76" version="1.1" xmlns:cc="http://creativecommons.org/ns#" xmlns:dc="http://purl.org/dc/elements/1.1/" viewBox="0 0 76.000001 68.000001">
 <defs>
  <marker id="a" refY="0" refX="0" overflow="visible" orient="auto">
   <path d="m5.77 0-8.65 5v-10l8.65 5z" fill-rule="evenodd" transform="scale(.2)" stroke="#000" stroke-width="1pt"/>
  </marker>
  <marker id="b" refY="0" refX="0" overflow="visible" orient="auto">
   <path d="m5.77 0-8.65 5v-10l8.65 5z" fill-rule="evenodd" transform="scale(-.2)" stroke="#000" stroke-width="1pt"/>
  </marker>
  <marker id="c" refY="0" refX="0" orient="auto" overflow="visible">
   <path d="m5.77 0-8.65 5v-10l8.65 5z" fill-rule="evenodd" transform="scale(.2)" stroke="#000" stroke-width="1pt"/>
  </marker>
  <marker id="d" refY="0" refX="0" overflow="visible" orient="auto">
   <path d="m5.77 0-8.65 5v-10l8.65 5z" fill-rule="evenodd" transform="scale(.2)" stroke="#000" stroke-width="1pt"/>
  </marker>
  <marker id="e" refY="0" refX="0" overflow="visible" orient="auto">
   <path d="m5.77 0-8.65 5v-10l8.65 5z" fill-rule="evenodd" transform="scale(.2)" stroke="#000" stroke-width="1pt"/>
  </marker>
  <marker id="f" refY="0" refX="0" orient="auto" overflow="visible">
   <path d="m5.77 0-8.65 5v-10l8.65 5z" fill-rule="evenodd" transform="scale(.2)" stroke="#000" stroke-width="1pt"/>
  </marker>
  <marker id="g" refY="0" refX="0" orient="auto" overflow="visible">
   <path d="m5.77 0-8.65 5v-10l8.65 5z" fill-rule="evenodd" transform="scale(.2)" stroke="#000" stroke-width="1pt"/>
  </marker>
  <marker id="h" refY="0" refX="0" overflow="visible" orient="auto">
   <path d="m5.77 0-8.65 5v-10l8.65 5z" fill-rule="evenodd" transform="scale(.2)" stroke="#000" stroke-width="1pt"/>
  </marker>
  <marker id="n" refY="0" refX="0" orient="auto" overflow="visible">
   <path d="m5.77 0-8.65 5v-10l8.65 5z" fill-rule="evenodd" transform="scale(-.2)" stroke="#000" stroke-width="1pt"/>
  </marker>
  <marker id="i" refY="0" refX="0" orient="auto" overflow="visible">
   <path d="m5.77 0-8.65 5v-10l8.65 5z" fill-rule="evenodd" transform="scale(.2)" stroke="#000" stroke-width="1pt"/>
  </marker>
  <marker id="j" refY="0" refX="0" overflow="visible" orient="auto">
   <path d="m5.77 0-8.65 5v-10l8.65 5z" fill-rule="evenodd" transform="scale(.2)" stroke="#000" stroke-width="1pt"/>
  </marker>
  <marker id="k" refY="0" refX="0" orient="auto" overflow="visible">
   <path d="m5.77 0-8.65 5v-10l8.65 5z" fill-rule="evenodd" transform="scale(.2)" stroke="#000" stroke-width="1pt"/>
  </marker>
  <marker id="l" refY="0" refX="0" overflow="visible" orient="auto">
   <path d="m5.77 0-8.65 5v-10l8.65 5z" fill-rule="evenodd" transform="scale(.2)" stroke="#000" stroke-width="1pt"/>
  </marker>
  <marker id="m" refY="0" refX="0" orient="auto" overflow="visible">
   <path d="m5.77 0-8.65 5v-10l8.65 5z" fill-rule="evenodd" transform="scale(.2)" stroke="#000" stroke-width="1pt"/>
  </marker>
 </defs>
 <g transform="translate(0 -984.4)">
  <g stroke-linejoin="round" stroke="#000" stroke-linecap="round" fill="#fff">
   <rect height="8" width="28" y="1040" x="44"/>
   <rect height="8" width="24" y="1040" x="16"/>
   <rect height="8" width="16" y="1e3" x="8"/>
   <rect height="8" width="16" y="988.4" x="28"/>
   <rect height="8" width="16" y="1e3" x="28"/>
  </g>
  <text style="word-spacing:0px;letter-spacing:0px" xml:space="preserve" font-size="5px" line-height="125%" y="1006.0021" x="31.633205" font-family="&apos;Source Sans Pro&apos;" fill="#000000"><tspan x="31.633205" y="1006.0021">CPU</tspan></text>
  <rect stroke-linejoin="round" height="8" width="24" stroke="#000" stroke-linecap="round" y="1e3" x="48" fill="#fff"/>
  <g font-size="5px" font-family="&apos;Source Sans Pro&apos;" fill="#000000">
   <text style="word-spacing:0px;letter-spacing:0px" xml:space="preserve" line-height="125%" y="1005.4797" x="51.220509"><tspan x="51.220509" y="1005.4797">Memory</tspan></text>
   <text style="word-spacing:0px;letter-spacing:0px" xml:space="preserve" line-height="125%" y="1045.4896" x="17.231054"><tspan x="17.231054" y="1045.4896">Input port</tspan></text>
   <text style="word-spacing:0px;letter-spacing:0px" xml:space="preserve" line-height="125%" y="1045.5197" x="45.485233"><tspan x="45.485233" y="1045.5197">Output port</tspan></text>
   <text style="word-spacing:0px;letter-spacing:0px" xml:space="preserve" line-height="125%" y="994.11218" x="30.094452"><tspan x="30.094452" y="994.11218">Clock</tspan></text>
   <text style="word-spacing:0px;letter-spacing:0px" xml:space="preserve" line-height="125%" y="1005.9722" x="10.060156"><tspan x="10.060156" y="1005.9722">Reset</tspan></text>
   <text style="word-spacing:0px;letter-spacing:0px" xml:space="preserve" line-height="125%" y="1018.1122" x="0.94"><tspan x="0.94" y="1018.1122">Address bus</tspan></text>
   <text style="word-spacing:0px;letter-spacing:0px" xml:space="preserve" line-height="125%" y="1026.1122" x="1.9067969"><tspan x="1.9067969" y="1026.1122">Control bus</tspan></text>
   <text style="word-spacing:0px;letter-spacing:0px" xml:space="preserve" line-height="125%" y="1034.1122" x="7.9517193"><tspan x="7.9517193" y="1034.1122">Data bus</tspan></text>
  </g>
  <g stroke="#000" stroke-width="1px" fill="none">
   <path marker-end="url(#m)" d="m36 996.4v3"/>
   <path marker-end="url(#l)" d="m24 1004h3"/>
   <g stroke-linecap="round">
    <path d="m28 1016h44"/>
    <path d="m28 1024h44"/>
    <path d="m28 1032h44"/>
   </g>
   <g>
    <path marker-end="url(#k)" d="m32 1008v7"/>
    <path marker-end="url(#j)" d="m36 1008v15"/>
    <path marker-end="url(#i)" d="m40 1009v22" marker-start="url(#n)"/>
    <path marker-end="url(#h)" d="m32 1024v15"/>
    <path marker-end="url(#g)" d="m36 1040v-7"/>
    <path marker-end="url(#f)" d="m56 1024v15"/>
    <path marker-end="url(#e)" d="m60 1032v7"/>
    <path marker-end="url(#d)" d="m56 1016v-7"/>
    <path marker-end="url(#c)" d="m60 1024v-15"/>
    <path marker-end="url(#a)" d="m64 1031v-22" marker-start="url(#b)"/>
   </g>
  </g>
 </g>
</svg>
