<svg xmlns:rdf="http://www.w3.org/1999/02/22-rdf-syntax-ns#" xmlns="http://www.w3.org/2000/svg" height="56" width="56" version="1.1" xmlns:cc="http://creativecommons.org/ns#" xmlns:dc="http://purl.org/dc/elements/1.1/" viewBox="0 0 56.000001 56">
 <g transform="translate(0 -996.4)">
  <g stroke="#000" fill="none">
   <path d="m20 1e3v48" stroke-width="1px"/>
   <g stroke-linejoin="round" stroke-linecap="round">
    <g stroke-width="1px">
     <path d="m30 1022v10h-15"/>
     <path d="m32 1032v-2"/>
     <path d="m32 1028v-2"/>
     <path d="m32 1024v-2"/>
     <path d="m32 1031h4v-4h-3l1-1v2l-1-1"/>
     <path d="m32 1023h4v-23h-28"/>
    </g>
    <ellipse rx="7" ry="7" cy="1027" cx="33"/>
    <path d="m36 1031v17h-28" stroke-width="1px"/>
   </g>
  </g>
  <rect stroke-linejoin="round" height="8" width="4" stroke="#000" stroke-linecap="round" y="1004" x="18" fill="#fff"/>
  <rect stroke-linejoin="round" height="8" width="4" stroke="#000" stroke-linecap="round" y="1036" x="18" fill="#fff"/>
  <g>
   <circle cx="20" cy="1032" r="1"/>
   <circle cx="20" cy="1e3" r="1"/>
   <circle cx="20" cy="1048" r="1"/>
  </g>
  <g stroke="#000" stroke-width="1px" fill="none">
   <path d="m13 1028v8"/>
   <path d="m15 1028v8"/>
   <path d="m13 1032h-5"/>
  </g>
  <g stroke-linejoin="round" stroke="#000" stroke-linecap="round" fill="#fff">
   <circle cx="8" cy="1032" r="1"/>
   <circle cy="1e3" cx="8" r="1"/>
   <circle cx="8" cy="1048" r="1"/>
  </g>
  <g font-size="5px" font-family="&apos;Source Sans Pro&apos;" fill="#000000">
   <text style="word-spacing:0px;letter-spacing:0px" xml:space="preserve" line-height="125%" y="1003.5021" x="0.79468155"><tspan x="0.79468155" y="1003.5021">V<tspan style="baseline-shift:sub" font-size="65%">DD</tspan></tspan></text>
   <text style="word-spacing:0px;letter-spacing:0px" line-height="125%" y="1049.4827" x="0.062324047" xml:space="preserve"><tspan y="1049.4827" x="0.062324047">V<tspan style="baseline-shift:sub" font-size="65%">SS</tspan></tspan></text>
   <text style="word-spacing:0px;letter-spacing:0px" xml:space="preserve" line-height="125%" y="1033.5022" x="0.37734604"><tspan x="0.37734604" y="1033.5022">V<tspan style="baseline-shift:sub" font-size="65%">IN</tspan></tspan></text>
  </g>
  <g stroke="#000">
   <rect stroke-linejoin="round" height="8" width="4" stroke-linecap="round" y="1004" x="34" fill="#fff"/>
   <path d="m36 1016h5" stroke-width="1px" fill="none"/>
   <path d="m43 1016h5" stroke-width="1px" fill="none"/>
   <circle stroke-linejoin="round" cx="48" stroke-linecap="round" cy="1016" r="1" fill="#fff"/>
   <path d="m41 1012v8" stroke-width="1px" fill="none"/>
   <path d="m43 1012v8" stroke-width="1px" fill="none"/>
  </g>
  <g>
   <circle cx="36" cy="1016" r="1"/>
   <text style="word-spacing:0px;letter-spacing:0px" font-size="5px" line-height="125%" y="1021.4827" x="46.758972" font-family="&apos;Source Sans Pro&apos;" xml:space="preserve" fill="#000000"><tspan y="1021.4827" x="46.758972">V<tspan style="baseline-shift:sub" font-size="65%">OUT</tspan></tspan></text>
   <text style="word-spacing:0px;letter-spacing:0px" xml:space="preserve" transform="translate(6.409e-7 -.000006016)" line-height="125%" font-size="5px" y="1009.4827" x="38.585476" font-family="&apos;Source Sans Pro&apos;" fill="#000000"><tspan x="38.585476" y="1009.4827">R<tspan style="baseline-shift:sub" font-size="65%">d</tspan></tspan></text>
  </g>
 </g>
</svg>
