<svg xmlns:rdf="http://www.w3.org/1999/02/22-rdf-syntax-ns#" xmlns="http://www.w3.org/2000/svg" height="40" width="76" version="1.1" xmlns:cc="http://creativecommons.org/ns#" xmlns:dc="http://purl.org/dc/elements/1.1/" viewBox="0 0 76.000001 40">
 <defs>
  <marker id="a" refY="0" refX="0" overflow="visible" orient="auto">
   <path d="m5.77 0-8.65 5v-10l8.65 5z" fill-rule="evenodd" transform="scale(.2)" stroke="#000" stroke-width="1pt"/>
  </marker>
  <marker id="b" refY="0" refX="0" overflow="visible" orient="auto">
   <path d="m5.77 0-8.65 5v-10l8.65 5z" fill-rule="evenodd" transform="scale(.2)" stroke="#000" stroke-width="1pt"/>
  </marker>
  <marker id="c" refY="0" refX="0" orient="auto" overflow="visible">
   <path d="m5.77 0-8.65 5v-10l8.65 5z" fill-rule="evenodd" transform="scale(.2)" stroke="#000" stroke-width="1pt"/>
  </marker>
  <marker id="d" refY="0" refX="0" overflow="visible" orient="auto">
   <path d="m5.77 0-8.65 5v-10l8.65 5z" fill-rule="evenodd" transform="scale(.2)" stroke="#000" stroke-width="1pt"/>
  </marker>
  <marker id="e" refY="0" refX="0" orient="auto" overflow="visible">
   <path d="m5.77 0-8.65 5v-10l8.65 5z" fill-rule="evenodd" transform="scale(.2)" stroke="#000" stroke-width="1pt"/>
  </marker>
 </defs>
 <g transform="translate(0 -1012)">
  <g stroke-linejoin="round" stroke="#000" stroke-linecap="round" fill="#fff">
   <rect height="8" width="32" y="1028" x="4"/>
   <rect height="8" width="32" y="1040" x="40"/>
   <rect height="8" width="24" y="1028" x="44"/>
   <rect height="8" width="24" y="1016" x="8"/>
   <rect height="8" width="24" y="1040" x="8"/>
  </g>
  <g font-size="5px" font-family="&apos;Source Sans Pro&apos;" fill="#000000">
   <text style="word-spacing:0px;letter-spacing:0px" xml:space="preserve" line-height="125%" y="1046.0022" x="12.672344"><tspan x="12.672344" y="1046.0022">Sensor</tspan></text>
   <text style="word-spacing:0px;letter-spacing:0px" xml:space="preserve" line-height="125%" y="1022.1422" x="9.5089073"><tspan x="9.5089073" y="1022.1422">Reference</tspan></text>
   <text style="word-spacing:0px;letter-spacing:0px" xml:space="preserve" line-height="125%" y="1034.1122" x="49.024139"><tspan x="49.024139" y="1034.1122">Switch</tspan></text>
   <text style="word-spacing:0px;letter-spacing:0px" xml:space="preserve" line-height="125%" y="1046.1122" x="44.27375"><tspan x="44.27375" y="1046.1122">Transducer</tspan></text>
   <text style="word-spacing:0px;letter-spacing:0px" xml:space="preserve" line-height="125%" y="1033.5197" x="7.3250771"><tspan x="7.3250771" y="1033.5197">Comparator</tspan></text>
  </g>
  <g stroke="#000" fill="none">
   <g stroke-width="1px">
    <path marker-end="url(#e)" d="m20 1024v3"/>
    <path marker-end="url(#d)" d="m20 1040v-3"/>
    <path marker-end="url(#c)" d="m36 1032h7"/>
    <path marker-end="url(#b)" d="m56 1036v3"/>
   </g>
   <path marker-end="url(#a)" d="m40 1044h-7" stroke-dasharray="1, 1"/>
  </g>
 </g>
</svg>
