<svg xmlns:rdf="http://www.w3.org/1999/02/22-rdf-syntax-ns#" xmlns="http://www.w3.org/2000/svg" height="64" width="64" version="1.1" xmlns:cc="http://creativecommons.org/ns#" xmlns:dc="http://purl.org/dc/elements/1.1/" viewBox="0 0 64 64.000003">
 <g transform="translate(-653.4 -1305)">
  <circle stroke-linejoin="round" cx="713.4" stroke-linecap="round" stroke="#000" cy="1309" r="2" stroke-miterlimit="4.286"/>
  <circle stroke-linejoin="round" stroke-linecap="round" stroke="#000" cy="1365" cx="713.4" stroke-miterlimit="4.286" r="2" fill="#fff"/>
  <path d="m707.4 1312 4.243-1.414-1.414 4.243z" fill-rule="evenodd"/>
  <path d="m657.4 1337c1-1 3-4.005 4 0 0.9989 4 3 4 4 0s3-4 4 0 3 4 4 0 3-4 4 0 3 0 4 0" stroke="#000" stroke-width="1px" fill="none"/>
  <path fill-rule="evenodd" d="m685.4 1337-4-2v4z"/>
  <g font-size="5px" font-family="&apos;Source Sans Pro&apos;" fill="#000000">
   <text style="word-spacing:0px;letter-spacing:0px" xml:space="preserve" line-height="125%" y="1330.3265" x="661.76819"><tspan x="661.76819" y="1330.3265">Photon</tspan></text>
   <text style="word-spacing:0px;letter-spacing:0px" xml:space="preserve" line-height="125%" y="1365.8441" x="685.36975"><tspan x="685.36975" y="1365.8441">Antiparticle</tspan></text>
   <text style="word-spacing:0px;letter-spacing:0px" xml:space="preserve" line-height="125%" y="1310.3265" x="693.38562"><tspan x="693.38562" y="1310.3265">Particle</tspan></text>
  </g>
  <path stroke-linejoin="round" d="m709.4 1313-24 24 24 24" stroke="#000" stroke-width="1px" fill="none"/>
  <path d="m710.2 1359 1.414 4.243-4.243-1.414z" fill-rule="evenodd"/>
 </g>
</svg>
