<svg xmlns:rdf="http://www.w3.org/1999/02/22-rdf-syntax-ns#" xmlns="http://www.w3.org/2000/svg" height="64" width="64" version="1.1" xmlns:cc="http://creativecommons.org/ns#" xmlns:dc="http://purl.org/dc/elements/1.1/" viewBox="0 0 80.000001 0">
 <g transform="translate(0 -1088.4)">
  <circle stroke-linejoin="round" cx="60" stroke-linecap="round" stroke="#000" cy="1092.4" r="2" stroke-miterlimit="4.2857"/>
  <circle stroke-linejoin="round" stroke-linecap="round" stroke="#000" cy="1148.4" cx="60" stroke-miterlimit="4.2857" r="2" fill="#fff"/>
  <path d="m53.99 1095.5 4.2426-1.4142-1.4142 4.2426z" fill-rule="evenodd"/>
  <path d="m4.0001 1120.4c1-1 3-4.0047 4 0 0.9989 4.0003 3 4 4 0s3-4 4 0 3 4 4 0 3-3.9999 4 0c1 4.0001 3 0 4 0" stroke="#000" stroke-width="1px" fill="none"/>
  <path fill-rule="evenodd" d="m32 1120.4-4-2v4z"/>
  <g font-size="5px" font-family="&apos;Source Sans Pro&apos;" fill="#000000">
   <text style="word-spacing:0px;letter-spacing:0px" xml:space="preserve" line-height="125%" y="1114.1122" x="8.3377342"><tspan x="8.3377342" y="1114.1122">Photon</tspan></text>
   <text style="word-spacing:0px;letter-spacing:0px" xml:space="preserve" line-height="125%" y="1149.6298" x="31.939297"><tspan x="31.939297" y="1149.6298">Antiparticle</tspan></text>
   <text style="word-spacing:0px;letter-spacing:0px" xml:space="preserve" line-height="125%" y="1094.1122" x="39.955196"><tspan x="39.955196" y="1094.1122">Particle</tspan></text>
  </g>
  <path stroke-linejoin="round" d="m56 1096.4-24 24 24 24" stroke="#000" stroke-width="1px" fill="none"/>
  <path d="m56.818 1142.4 1.4142 4.2426-4.2426-1.4142z" fill-rule="evenodd"/>
 </g>
</svg>
