<svg xmlns:rdf="http://www.w3.org/1999/02/22-rdf-syntax-ns#" xmlns="http://www.w3.org/2000/svg" height="40" width="152" version="1.1" xmlns:cc="http://creativecommons.org/ns#" xmlns:dc="http://purl.org/dc/elements/1.1/" viewBox="0 0 152 40">
 <defs>
  <marker id="a" refY="0.0" refX="0.0" overflow="visible" orient="auto">
   <path d="m5.77 0l-8.65 5v-10l8.65 5z" fill-rule="evenodd" transform="scale(.2)" stroke="#000" stroke-width="1pt"/>
  </marker>
  <marker id="b" refY="0.0" refX="0.0" overflow="visible" orient="auto">
   <path d="m5.77 0l-8.65 5v-10l8.65 5z" fill-rule="evenodd" transform="scale(.2)" stroke="#000" stroke-width="1pt"/>
  </marker>
  <marker id="c" refY="0.0" refX="0.0" overflow="visible" orient="auto">
   <path d="m5.77 0l-8.65 5v-10l8.65 5z" fill-rule="evenodd" transform="scale(.2)" stroke="#000" stroke-width="1pt"/>
  </marker>
  <marker id="d" refY="0.0" refX="0.0" orient="auto" overflow="visible">
   <path d="m5.77 0l-8.65 5v-10l8.65 5z" fill-rule="evenodd" transform="scale(.2)" stroke="#000" stroke-width="1pt"/>
  </marker>
  <marker id="e" refY="0.0" refX="0.0" orient="auto" overflow="visible">
   <path d="m5.77 0l-8.65 5v-10l8.65 5z" fill-rule="evenodd" transform="scale(.2)" stroke="#000" stroke-width="1pt"/>
  </marker>
 </defs>
 <g transform="translate(0 -1012)">
  <path stroke-linejoin="round" marker-end="url(#a)" d="m116 1032h-88v-7" stroke="#000" stroke-dasharray="1, 1" fill="none"/>
  <path marker-end="url(#e)" d="m52 1020h2 36 28 30" marker-mid="url(#d)" stroke="#000" stroke-width="1px" fill="none"/>
  <g stroke-linejoin="round" stroke="#000" stroke-linecap="round" fill="#fff">
   <rect height="8" width="48" y="1016" x="4"/>
   <rect height="8" width="32" y="1016" x="56"/>
   <rect height="8" width="24" y="1016" x="92"/>
   <rect height="8" width="24" y="1016" x="120"/>
   <rect height="8" width="32" y="1028" x="116"/>
   <rect height="8" width="24" y="1040" x="120"/>
   <rect height="8" width="32" y="1028" x="56"/>
  </g>
  <g font-size="5px" font-family="&apos;Source Sans Pro&apos;" fill="#000000">
   <text style="word-spacing:0px;letter-spacing:0px" xml:space="preserve" line-height="125%" y="1022.1122" x="8.0063286"><tspan x="8.0063286" y="1022.1122">Switched oscillator</tspan></text>
   <text style="word-spacing:0px;letter-spacing:0px" xml:space="preserve" line-height="125%" y="1022.1422" x="59.101875"><tspan x="59.101875" y="1022.1422">Transformer</tspan></text>
   <text style="word-spacing:0px;letter-spacing:0px" xml:space="preserve" line-height="125%" y="1022.1422" x="95.10215"><tspan x="95.10215" y="1022.1422">Rectifier</tspan></text>
   <text style="word-spacing:0px;letter-spacing:0px" xml:space="preserve" line-height="125%" y="1022.1122" x="121.49851"><tspan x="121.49851" y="1022.1122">Smoother</tspan></text>
   <text style="word-spacing:0px;letter-spacing:0px" xml:space="preserve" line-height="125%" y="1033.5197" x="119.32507"><tspan x="119.32507" y="1033.5197">Comparator</tspan></text>
   <text style="word-spacing:0px;letter-spacing:0px" xml:space="preserve" line-height="125%" y="1046.1422" x="121.50891"><tspan x="121.50891" y="1046.1422">Reference</tspan></text>
   <text style="word-spacing:0px;letter-spacing:0px" xml:space="preserve" line-height="125%" y="1033.6296" x="57.977421"><tspan x="57.977421" y="1033.6296">Opto-isolator</tspan></text>
  </g>
  <path marker-end="url(#c)" d="m132 1024v3" stroke="#000" stroke-width="1px" fill="none"/>
  <path marker-end="url(#b)" d="m132 1040v-3" stroke="#000" stroke-width="1px" fill="none"/>
 </g>
</svg>
