<svg xmlns:rdf="http://www.w3.org/1999/02/22-rdf-syntax-ns#" xmlns="http://www.w3.org/2000/svg" height="48" width="80" version="1.1" xmlns:cc="http://creativecommons.org/ns#" xmlns:dc="http://purl.org/dc/elements/1.1/" viewBox="0 0 80.000001 48">
 <g transform="translate(0 -1004)">
  <path stroke-linejoin="round" d="m32 1024v24l28-12z" fill-rule="evenodd" stroke="#000" stroke-linecap="round" stroke-width="1px" fill="#fff"/>
  <g stroke-width="1px" stroke="#000" fill="none">
   <g stroke-linejoin="round">
    <path d="m34 1040h4"/>
    <path d="m36 1038v4"/>
    <path d="m34 1032h4"/>
    <path d="m32 1040-12 0.0002v4"/>
   </g>
   <path d="m32 1032h-24"/>
  </g>
  <rect stroke-linejoin="round" height="4" width="8" stroke="#000" y="1030" x="12" fill="#fff"/>
  <g stroke-width="1px" stroke="#000" fill="none">
   <path stroke-linejoin="round" d="m28 1032v-12h17"/>
   <path stroke-linejoin="round" d="m47 1020h17v16"/>
   <g>
    <path d="m60 1036h8"/>
    <path d="m45 1016v8"/>
    <path d="m47 1016v8"/>
   </g>
  </g>
  <circle cx="28" cy="1032" r="1"/>
  <g stroke="#000" stroke-linecap="round" stroke-width="1px" fill="none">
   <path d="m16 1044h8"/>
   <path d="m17 1046h6"/>
   <path d="m18 1048h4"/>
  </g>
  <g>
   <circle stroke-linejoin="round" cx="8" stroke-linecap="round" stroke="#000" cy="1032" r="1" fill="#fff"/>
   <circle stroke-linejoin="round" stroke-linecap="round" stroke="#000" cy="1036" cx="68" r="1" fill="#fff"/>
   <text style="word-spacing:0px;letter-spacing:0px" xml:space="preserve" font-size="5px" y="1037.4824" x="71.517944" font-family="sans-serif" line-height="125%" fill="#000000"><tspan y="1037.4824" x="71.517944" font-family="&apos;Source Sans Pro&apos;">V<tspan style="baseline-shift:sub" font-size="65%">OUT</tspan></tspan></text>
   <text style="word-spacing:0px;letter-spacing:0px" line-height="125%" font-size="5px" y="1033.5022" x="0" font-family="sans-serif" xml:space="preserve" fill="#000000"><tspan y="1033.5022" x="0" font-family="&apos;Source Sans Pro&apos;">V<tspan style="baseline-shift:sub" font-size="65%">IN</tspan></tspan></text>
  </g>
  <path d="m40 1012h12" stroke="#000" stroke-linecap="round" stroke-width="1px" fill="none"/>
  <path stroke-linejoin="round" d="m42 1010-2 2 2 2" stroke="#000" stroke-linecap="round" stroke-width="1px" fill="none"/>
  <text style="word-spacing:0px;letter-spacing:0px" xml:space="preserve" font-size="5px" y="1009.642" x="43.835064" font-family="sans-serif" line-height="125%" fill="#000000"><tspan y="1009.642" x="43.835064" font-family="&apos;Source Sans Pro&apos;">V<tspan style="baseline-shift:sub" font-size="65%">C</tspan></tspan></text>
  <path d="m10 1026h12" stroke="#000" stroke-linecap="round" stroke-width="1px" fill="none"/>
  <path stroke-linejoin="round" d="m12 1024-2 2 2 2" stroke="#000" stroke-linecap="round" stroke-width="1px" fill="none"/>
  <g font-size="5px" font-family="sans-serif" fill="#000000">
   <text style="word-spacing:0px;letter-spacing:0px" line-height="125%" y="1023.642" x="13.835064" xml:space="preserve"><tspan y="1023.642" x="13.835064" font-family="&apos;Source Sans Pro&apos;">V<tspan style="baseline-shift:sub" font-size="65%">R</tspan></tspan></text>
   <text style="word-spacing:0px;letter-spacing:0px" xml:space="preserve" y="1036.8578" x="26.270563" line-height="125%"><tspan y="1036.8578" x="26.270563" font-family="&apos;Source Sans Pro&apos;">V<tspan style="baseline-shift:sub" font-size="65%">-</tspan></tspan></text>
   <text style="word-spacing:0px;letter-spacing:0px" line-height="125%" y="1044.6711" x="25.958563" xml:space="preserve"><tspan y="1044.6711" x="25.958563" font-family="&apos;Source Sans Pro&apos;">V<tspan style="baseline-shift:sub" font-size="65%">+</tspan></tspan></text>
  </g>
  <circle cy="1036" cx="64" r="1"/>
  <path d="m34.82 1018 2 2-2 2" stroke="#000" stroke-linecap="round" stroke-width="1px" fill="none"/>
  <text style="word-spacing:0px;letter-spacing:0px" line-height="125%" font-size="5px" y="1016.4825" x="34.239944" font-family="sans-serif" xml:space="preserve" fill="#000000"><tspan y="1016.4825" x="34.239944" font-family="&apos;Source Sans Pro&apos;">I<tspan style="baseline-shift:sub" font-size="65%">C</tspan></tspan></text>
  <path d="m23 1030 2 2-2 2" stroke="#000" stroke-linecap="round" stroke-width="1px" fill="none"/>
  <g font-size="5px" font-family="sans-serif" fill="#000000">
   <text style="word-spacing:0px;letter-spacing:0px" xml:space="preserve" y="1028.4824" x="22.416721" line-height="125%"><tspan y="1028.4824" x="22.416721" font-family="&apos;Source Sans Pro&apos;">I<tspan style="baseline-shift:sub" font-size="65%">R</tspan></tspan></text>
   <text style="word-spacing:0px;letter-spacing:0px" line-height="125%" y="1028.0022" x="44.522499" xml:space="preserve"><tspan y="1028.0022" x="44.522499" font-family="&apos;Source Sans Pro&apos;">C</tspan></text>
   <text style="word-spacing:0px;letter-spacing:0px" xml:space="preserve" y="1039.0022" x="14.415" line-height="125%"><tspan y="1039.0022" x="14.415" font-family="&apos;Source Sans Pro&apos;">R</tspan></text>
  </g>
 </g>
</svg>
