<svg xmlns:rdf="http://www.w3.org/1999/02/22-rdf-syntax-ns#" xmlns="http://www.w3.org/2000/svg" height="52" width="80" version="1.1" xmlns:cc="http://creativecommons.org/ns#" xmlns:dc="http://purl.org/dc/elements/1.1/" viewBox="0 0 80.000001 52">
 <g transform="translate(0 -1e3)">
  <g stroke="#000" stroke-width="1px" fill="none">
   <path d="m28 1020h36"/>
   <path d="m32 1032h-24"/>
   <path stroke-linejoin="round" d="m28 1032v-24h17"/>
   <path stroke-linejoin="round" d="m32 1024v24l28-12z"/>
   <g>
    <path d="m34 1032h4"/>
    <path d="m34 1040h4"/>
    <path d="m36 1038v4"/>
   </g>
  </g>
  <rect stroke-linejoin="round" height="6" width="12" stroke="#000" stroke-linecap="round" y="1017" x="40" fill="#fff"/>
  <rect stroke-linejoin="round" height="6" width="12" stroke="#000" stroke-linecap="round" y="1029" x="12" fill="#fff"/>
  <g stroke="#000" stroke-width="1px" fill="none">
   <g stroke-linejoin="round" stroke-linecap="round">
    <path d="m32 1040h-8v4"/>
    <path d="m20 1044h8"/>
    <path d="m21 1046h6"/>
    <path d="m22 1048h4"/>
   </g>
   <path d="m60 1036h8"/>
  </g>
  <g>
   <circle stroke-linejoin="round" cx="8" stroke-linecap="round" stroke="#000" cy="1032" r="1" fill="#fff"/>
   <circle stroke-linejoin="round" cx="68" stroke-linecap="round" stroke="#000" cy="1036" r="1" fill="#fff"/>
   <text style="word-spacing:0px;letter-spacing:0px" xml:space="preserve" font-size="5px" line-height="125%" y="1033.5022" x="0.37734571" font-family="&apos;Source Sans Pro&apos;" fill="#000000"><tspan x="0.37734571" y="1033.5022">V<tspan style="baseline-shift:sub" font-size="65%">IN</tspan></tspan></text>
   <text style="word-spacing:0px;letter-spacing:0px" xml:space="preserve" font-size="5px" line-height="125%" y="1037.4827" x="69.758972" font-family="&apos;Source Sans Pro&apos;" fill="#000000"><tspan x="69.758972" y="1037.4827">V<tspan style="baseline-shift:sub" font-size="65%">OUT</tspan></tspan></text>
   <circle cx="64" cy="1036" r="1"/>
   <circle cx="28" cy="1032" r="1"/>
  </g>
  <g stroke-width="1px" stroke="#000" fill="none">
   <path d="m45 1004v8"/>
   <path d="m47 1004v8"/>
   <path stroke-linejoin="round" d="m47 1008h17v28"/>
  </g>
  <circle cx="28" cy="1020" r="1"/>
  <circle cx="64" cy="1020" r="1"/>
 </g>
</svg>
