<?xml version="1.0" encoding="UTF-8" standalone="no"?>
<svg xmlns:rdf="http://www.w3.org/1999/02/22-rdf-syntax-ns#" xmlns="http://www.w3.org/2000/svg" height="48" width="124" version="1.1" xmlns:cc="http://creativecommons.org/ns#" xmlns:dc="http://purl.org/dc/elements/1.1/" viewBox="0 0 124 48">
 <g transform="translate(0 -1004)">
  <path stroke-linejoin="round" d="m76 1012v24l28-12z" fill-rule="evenodd" stroke="#000" stroke-linecap="round" stroke-width="1px" fill="#fff"/>
  <g stroke-width="1px" stroke="#000" fill="none">
   <g stroke-linejoin="round">
    <path d="m78 1028h4"/>
    <path d="m80 1026v4"/>
    <path d="m78 1020h4"/>
    <path d="m76 1028-8 0.0002v12"/>
    <path d="m72 1020v-12h17"/>
   </g>
   <g>
    <path d="m104 1024h8"/>
    <path d="m89 1004v8"/>
    <path d="m91 1004v8"/>
   </g>
  </g>
  <circle cx="72" cy="1020" r="1"/>
  <g stroke="#000" stroke-linecap="round" stroke-width="1px" fill="none">
   <path d="m64 1040h8"/>
   <path d="m65 1042h6"/>
   <path d="m66 1044h4"/>
  </g>
  <g>
   <circle stroke-linejoin="round" stroke-linecap="round" stroke="#000" cy="1024" cx="112" r="1" fill="#fff"/>
   <text style="word-spacing:0px;letter-spacing:0px" xml:space="preserve" font-size="5px" y="1025.4824" x="115.51794" font-family="sans-serif" line-height="125%" fill="#000000"><tspan y="1025.4824" x="115.51794" font-family="&apos;Source Sans Pro&apos;">V<tspan style="baseline-shift:sub" font-size="65%">OUT</tspan></tspan></text>
   <circle cy="1024" cx="108" r="1"/>
   <text style="word-spacing:0px;letter-spacing:0px" line-height="125%" font-size="5px" y="1016.0022" x="88.522499" font-family="sans-serif" xml:space="preserve" fill="#000000"><tspan y="1016.0022" x="88.522499" font-family="&apos;Source Sans Pro&apos;">C</tspan></text>
   <text style="word-spacing:0px;letter-spacing:0px" xml:space="preserve" font-size="5px" y="1027.0022" x="62.415001" font-family="sans-serif" line-height="125%" fill="#000000"><tspan y="1027.0022" x="62.415001" font-family="&apos;Source Sans Pro&apos;">R</tspan></text>
   <path stroke-linejoin="round" d="m24 1012v24l28-12z" fill-rule="evenodd" stroke="#000" stroke-linecap="round" stroke-width="1px" fill="#fff"/>
  </g>
  <g stroke-linejoin="round" stroke="#000" stroke-width="1px" fill="none">
   <path d="m26 1020h4"/>
   <path d="m28 1018v4"/>
   <path d="m26 1028h4"/>
   <path d="m24 1028-8 0.0002v12"/>
   <path d="m24 1020h-20v28h104v-40h-17"/>
  </g>
  <g stroke="#000">
   <rect stroke-linejoin="round" height="4" width="8" y="1018" x="8" fill="#fff"/>
   <path stroke-linejoin="round" d="m20 1020v-12h36v16l-4-0.0001" stroke-width="1px" fill="none"/>
   <path d="m56 1020h20" stroke-width="1px" fill="none"/>
  </g>
  <circle cx="20" cy="1020" r="1"/>
  <g stroke="#000" stroke-linecap="round" stroke-width="1px" fill="none">
   <path d="m12 1040h8"/>
   <path d="m13 1042h6"/>
   <path d="m14 1044h4"/>
  </g>
  <g>
   <circle cy="1020" cx="56" r="1"/>
   <text style="word-spacing:0px;letter-spacing:0px" line-height="125%" font-size="5px" y="1014.5025" x="35.835728" font-family="sans-serif" xml:space="preserve" fill="#000000"><tspan y="1014.5025" x="35.835728" font-family="&apos;Source Sans Pro&apos;">R<tspan style="baseline-shift:sub" font-size="65%">f</tspan></tspan></text>
   <text style="word-spacing:0px;letter-spacing:0px" xml:space="preserve" font-size="5px" y="1026.5026" x="9.0205078" font-family="sans-serif" line-height="125%" fill="#000000"><tspan y="1026.5026" x="9.0205078" font-family="&apos;Source Sans Pro&apos;">R<tspan style="baseline-shift:sub" font-size="65%">IN</tspan></tspan></text>
   <rect stroke-linejoin="round" height="4" width="8" stroke="#000" y="1006" x="34" fill="#fff"/>
   <rect stroke-linejoin="round" height="4" width="8" stroke="#000" y="1018" x="60" fill="#fff"/>
  </g>
 </g>
</svg>
