<svg xmlns:rdf="http://www.w3.org/1999/02/22-rdf-syntax-ns#" xmlns="http://www.w3.org/2000/svg" height="72" width="80" version="1.1" xmlns:cc="http://creativecommons.org/ns#" xmlns:dc="http://purl.org/dc/elements/1.1/" viewBox="0 0 80.000001 72.000001">
 <g transform="translate(0 -980.4)">
  <g stroke="#000" fill="none">
   <path stroke-linejoin="round" d="m28 1044h-16v-40h16" stroke-width="1px"/>
   <g stroke-width="1px" stroke-linecap="round">
    <path stroke-linejoin="round" d="m48 1008h8v-18"/>
    <g>
     <path d="m59 1008v-4"/>
     <path d="m59 1001v-4"/>
     <path d="m59 994.4v-4"/>
    </g>
   </g>
   <g stroke-linejoin="round">
    <path d="m59 1006h5" stroke-width="1px"/>
    <circle cx="60" stroke-linecap="round" cy="999.4" r="12"/>
    <path d="m60 999.4 1 1v-2l-1 1h4v25l-5-0.0001" stroke-width="1px"/>
    <path d="m59 992.4 5 0.0001v-8l-8 0.00016" stroke-width="1px"/>
   </g>
   <g stroke-width="1px" stroke-linecap="round">
    <path stroke-linejoin="round" d="m48 1040h8v-18"/>
    <g>
     <path d="m59 1040v-4"/>
     <path d="m59 1033v-4"/>
     <path d="m59 1026v-4"/>
    </g>
   </g>
   <g stroke-linejoin="round">
    <path d="m59 1038h5" stroke-width="1px"/>
    <circle cx="60" stroke-linecap="round" cy="1031" r="12"/>
    <path d="m60 1031 1 1v-2l-1 1h4v17h-8" stroke-width="1px"/>
    <path d="m28 1032v16h12c4.418 0 8-3.582 8-8-0.000013-4.418-3.582-8-8-8z" stroke-linecap="round"/>
    <path d="m28 1e3v16h12c4.418 0 8-3.582 8-8-0.000013-4.418-3.582-8-8-8z" stroke-linecap="round"/>
    <path d="m28 1012h-4v24h4" stroke-width="1px"/>
   </g>
   <path d="m24 1024h-4" stroke-width="1px"/>
  </g>
  <g>
   <circle cx="24" cy="1024" r="1"/>
   <circle stroke-linejoin="round" cx="20" stroke-linecap="round" stroke="#000" cy="1024" r="1" fill="#fff"/>
   <text style="word-spacing:0px;letter-spacing:0px" xml:space="preserve" font-size="5px" line-height="125%" y="1026.0022" x="14.58" font-family="&apos;Source Sans Pro&apos;" fill="#000000"><tspan x="14.58" y="1026.0022">E</tspan></text>
  </g>
  <g stroke="#000">
   <path stroke-linejoin="round" d="m12 1040 4-8h-8z" fill-rule="evenodd" stroke-width="1px" fill="#fff"/>
   <circle stroke-linejoin="round" cx="12" stroke-linecap="round" cy="1041" r="1" fill="#fff"/>
   <path d="m12 1024h-4" stroke-width="1px" fill="none"/>
  </g>
  <g>
   <circle cy="1024" cx="12" r="1"/>
   <circle stroke-linejoin="round" stroke-linecap="round" stroke="#000" cy="1024" cx="8" r="1" fill="#fff"/>
   <text style="word-spacing:0px;letter-spacing:0px" font-size="5px" line-height="125%" y="1025.5022" x="0.37734604" font-family="&apos;Source Sans Pro&apos;" xml:space="preserve" fill="#000000"><tspan y="1025.5022" x="0.37734604">V<tspan style="baseline-shift:sub" font-size="65%">IN</tspan></tspan></text>
   <circle stroke-linejoin="round" cx="56" stroke-linecap="round" stroke="#000" cy="984.4" r="1" fill="#fff"/>
   <circle stroke-linejoin="round" cx="56" stroke-linecap="round" stroke="#000" cy="1048" r="1" fill="#fff"/>
   <text style="word-spacing:0px;letter-spacing:0px" xml:space="preserve" font-size="5px" line-height="125%" y="1049.4827" x="48.062325" font-family="&apos;Source Sans Pro&apos;" fill="#000000"><tspan x="48.062325" y="1049.4827">V<tspan style="baseline-shift:sub" font-size="65%">SS</tspan></tspan></text>
   <text style="word-spacing:0px;letter-spacing:0px" font-size="5px" line-height="125%" y="985.50214" x="47.794682" font-family="&apos;Source Sans Pro&apos;" xml:space="preserve" fill="#000000"><tspan y="985.50214" x="47.794682">V<tspan style="baseline-shift:sub" font-size="65%">DD</tspan></tspan></text>
  </g>
  <path d="m68 1016h-4" stroke="#000" stroke-width="1px" fill="none"/>
  <g>
   <circle cy="1016" cx="64" r="1"/>
   <circle stroke-linejoin="round" stroke-linecap="round" stroke="#000" cy="1016" cx="68" r="1" fill="#fff"/>
   <text style="word-spacing:0px;letter-spacing:0px" font-size="5px" line-height="125%" y="1017.4827" x="69.758972" font-family="&apos;Source Sans Pro&apos;" xml:space="preserve" fill="#000000"><tspan y="1017.4827" x="69.758972">V<tspan style="baseline-shift:sub" font-size="65%">OUT</tspan></tspan></text>
  </g>
 </g>
</svg>
