<svg xmlns:rdf="http://www.w3.org/1999/02/22-rdf-syntax-ns#" xmlns="http://www.w3.org/2000/svg" height="48" width="40" version="1.1" xmlns:cc="http://creativecommons.org/ns#" xmlns:dc="http://purl.org/dc/elements/1.1/" viewBox="0 0 40 48">
 <g transform="translate(0 -1004)">
  <g stroke="#000" fill="none">
   <path d="m20 1028h8" stroke-width="1px"/>
   <g stroke-linejoin="round" stroke-linecap="round">
    <g stroke-width="1px">
     <path d="m20 1023v21"/>
     <path d="m16 1024v-2"/>
     <path d="m16 1020v-2"/>
     <path d="m16 1016v-2"/>
     <path d="m14 1014v10h-6"/>
     <path d="m16 1023h4v-4h-3l1-1v2l-1-1"/>
     <path d="m16 1015h4v-7h-12"/>
    </g>
    <circle cx="17" cy="1019" r="7"/>
   </g>
  </g>
  <g stroke-linejoin="round" stroke="#000" stroke-linecap="round" fill="#fff">
   <rect height="8" width="4" y="1032" x="18"/>
   <circle cx="8" cy="1008" r="1"/>
   <circle cx="8" cy="1024" r="1"/>
  </g>
  <g font-size="5px" font-family="&apos;Source Sans Pro&apos;" fill="#000000">
   <text style="word-spacing:0px;letter-spacing:0px" xml:space="preserve" line-height="125%" y="1025.5022" x="1.8269377"><tspan x="1.8269377" y="1025.5022">V<tspan style="baseline-shift:sub" font-size="65%">R</tspan></tspan></text>
   <text style="word-spacing:0px;letter-spacing:0px" line-height="125%" y="1009.5022" x="0.37734571" xml:space="preserve"><tspan y="1009.5022" x="0.37734571">V<tspan style="baseline-shift:sub" font-size="65%">IN</tspan></tspan></text>
   <text style="word-spacing:0px;letter-spacing:0px" xml:space="preserve" line-height="125%" y="1029.4827" x="30.758972"><tspan x="30.758972" y="1029.4827">V<tspan style="baseline-shift:sub" font-size="65%">OUT</tspan></tspan></text>
  </g>
  <circle stroke-linejoin="round" stroke-linecap="round" stroke="#000" cy="1028" cx="28" r="1" fill="#fff"/>
  <g stroke="#000" stroke-linecap="round" stroke-width="1px" fill="none">
   <path d="m16 1044h8"/>
   <path d="m17 1046h6"/>
   <path d="m18 1048h4"/>
  </g>
  <circle cx="20" cy="1028" r="1"/>
 </g>
</svg>
