<svg xmlns:rdf="http://www.w3.org/1999/02/22-rdf-syntax-ns#" xmlns="http://www.w3.org/2000/svg" height="48" width="64" version="1.1" xmlns:cc="http://creativecommons.org/ns#" xmlns:dc="http://purl.org/dc/elements/1.1/" viewBox="0 0 64 48.000001">
 <g transform="translate(0 -1004)">
  <path d="m12 1028v16" stroke="#000" stroke-width="1px" fill="none"/>
  <text style="word-spacing:0px;letter-spacing:0px" font-size="5px" line-height="125%" y="1070.0022" x="22.415001" font-family="&apos;Source Sans Pro&apos;" xml:space="preserve" fill="#000000"><tspan y="1070.0022" x="22.415001"/></text>
  <g stroke-width="1px" stroke="#000" fill="none">
   <path stroke-linejoin="round" d="m16 1012v24l28-12z"/>
   <g>
    <path d="m18 1020h4"/>
    <path d="m18 1028h4"/>
    <path d="m20 1026v4"/>
    <path d="m16 1028h-8"/>
   </g>
   <path stroke-linejoin="round" d="m16 1020h-4v-12h36v16"/>
   <path d="m44 1024h8"/>
  </g>
  <g>
   <circle stroke-linejoin="round" cx="52" stroke-linecap="square" stroke="#000" cy="1024" r="1" fill="#fff"/>
   <circle cx="48" cy="1024" r="1"/>
   <rect stroke-linejoin="round" height="8" width="4" stroke="#000" stroke-linecap="square" y="1032" x="10" fill="#fff"/>
  </g>
  <g stroke="#000" stroke-linecap="round" stroke-width="1px" fill="none">
   <path d="m8 1044h8"/>
   <path d="m9 1046h6"/>
   <path d="m10 1048h4"/>
  </g>
  <g>
   <circle cx="12" cy="1028" r="1"/>
   <circle stroke-linejoin="round" stroke-linecap="square" stroke="#000" cy="1028" cx="8" r="1" fill="#fff"/>
   <text style="word-spacing:0px;letter-spacing:0px" xml:space="preserve" font-size="5px" line-height="125%" y="1029.5022" x="0.37734604" font-family="&apos;Source Sans Pro&apos;" fill="#000000"><tspan x="0.37734604" y="1029.5022">V<tspan style="baseline-shift:sub" font-size="65%">IN</tspan></tspan></text>
   <text style="word-spacing:0px;letter-spacing:0px" font-size="5px" line-height="125%" y="1025.4827" x="53.758972" font-family="&apos;Source Sans Pro&apos;" xml:space="preserve" fill="#000000"><tspan y="1025.4827" x="53.758972">V<tspan style="baseline-shift:sub" font-size="65%">OUT</tspan></tspan></text>
  </g>
 </g>
</svg>
